<?xml version="1.0" encoding="utf-8"?>
<!-- Generator: Adobe Illustrator 18.1.1, SVG Export Plug-In . SVG Version: 6.00 Build 0)  -->
<svg version="1.1" id="Layer_1" xmlns="http://www.w3.org/2000/svg" xmlns:xlink="http://www.w3.org/1999/xlink" x="0px" y="0px"
	 viewBox="0 0 243 376.3" enable-background="new 0 0 243 376.3" xml:space="preserve">
<g>
	<ellipse fill="#6C94CD" cx="122.1" cy="189.2" rx="96.4" ry="130.9"/>
	<g>
		<defs>
			<ellipse id="SVGID_1_" cx="122.1" cy="189.2" rx="96.4" ry="130.9"/>
		</defs>
		<clipPath id="SVGID_2_">
			<use xlink:href="#SVGID_1_"  overflow="visible"/>
		</clipPath>
		<g clip-path="url(#SVGID_2_)">
			
				<rect x="-70.3" y="112.5" transform="matrix(0.7071 -0.7071 0.7071 0.7071 -71.8013 76.3102)" fill="#82AADA" width="253.1" height="24.6"/>
			
				<rect x="-37.1" y="145.8" transform="matrix(0.7071 -0.7071 0.7071 0.7071 -85.576 109.5653)" fill="#82AADA" width="253.1" height="24.6"/>
			
				<rect x="-3.8" y="179" transform="matrix(0.7071 -0.7071 0.7071 0.7071 -99.3507 142.8204)" fill="#82AADA" width="253.1" height="24.6"/>
			
				<rect x="29.4" y="212.3" transform="matrix(0.7071 -0.7071 0.7071 0.7071 -113.1255 176.0756)" fill="#82AADA" width="253.1" height="24.6"/>
			
				<rect x="62.7" y="245.5" transform="matrix(0.7071 -0.7071 0.7071 0.7071 -126.9001 209.3308)" fill="#82AADA" width="253.1" height="24.6"/>
		</g>
	</g>
	<path fill="#504D48" d="M122.1,322.2c-26.3,0-50.9-13.8-69.4-39c-18.4-25-28.6-58.2-28.6-93.5c0-35.3,10.1-68.5,28.6-93.5
		c18.5-25.1,43.2-39,69.4-39c26.3,0,50.9,13.8,69.4,39c18.4,25,28.6,58.2,28.6,93.5c0,35.3-10.1,68.5-28.6,93.5
		C173,308.4,148.4,322.2,122.1,322.2z M122.1,60.5c-52.3,0-94.9,58-94.9,129.3c0,71.3,42.6,129.3,94.9,129.3
		c52.3,0,94.9-58,94.9-129.3C217,118.5,174.4,60.5,122.1,60.5z"/>
</g>
<g>
	<defs>
		<ellipse id="SVGID_3_" cx="122.1" cy="189.2" rx="96.4" ry="130.9"/>
	</defs>
	<clipPath id="SVGID_4_">
		<use xlink:href="#SVGID_3_"  overflow="visible"/>
	</clipPath>
	<path clip-path="url(#SVGID_4_)" fill="#504D48" d="M85,120.3c0,0-9.3-21-3.4-30.7c5.8-9.8,14.1-12.7,21.7-13.6
		c0,0,17.8-5.4,25.1,1.5c0,0,12.9-3.1,19.1,8.1c0,0,19.9,11.9,18.2,24.1c-1.7,12.2-7.1,19.1-4.8,27.6L85,120.3z"/>
	<path clip-path="url(#SVGID_4_)" fill="#FFFFFF" d="M37,240.8c0,0,6-9.5,9-11.8c3-2.3,4.7-12.8,4.7-12.8l36.8-11.7l6-7.7
		c0,0-2-26.1-4-35.1c-2-9-2.7-18.7-3-19.7c-0.3-1.1,0.4-5.7,0.3-12c0-6.4-5.4-31.9,1.5-33.7c0.5,2.8,3.2,5.3,3.2,5.3
		s-1.8-8.3,3.3-11.7c5.7,17,15.9,14.8,20.4,13.8c8.9-2,12.2-17.7,12.2-17.7s2.8,3.8,3,9.9c3.5,2,5,4.5,6.5,8
		c1.2,2.8,0.5,4.2,1.2,5.1c0.7-3,3-4.3,3-4.3s-0.4,12.8,0.9,15c1.6-1.5,5.4,7.8,5.4,7.8l1.9-4.6c0,0,8.4,10.9,8.6,12.9
		c0,0,5.5,2,4.9,7c-0.7,5-4.1,10-9.3,18.5c0,0-2.1,14.3-1.4,17.6c0.7,3.3,7.5,2,9,5.8c1.5,3.9,5.7,18.6,10.1,21
		c4.3,2.3,51.3,28.4,51.3,28.4l9,88.8H24.9L37,240.8z"/>
	<g clip-path="url(#SVGID_4_)">
		<defs>
			<path id="SVGID_5_" d="M37,240.8c0,0,6-9.5,9-11.8c3-2.3,4.7-12.8,4.7-12.8l36.8-11.7l6-7.7c0,0-2-26.1-4-35.1
				c-2-9-2.7-18.7-3-19.7c-0.3-1.1,0.4-5.7,0.3-12c0-6.4-5.4-31.9,1.5-33.7c0.5,2.8,3.2,5.3,3.2,5.3s-1.8-8.3,3.3-11.7
				c5.7,17,15.9,14.8,20.4,13.8c8.9-2,12.2-17.7,12.2-17.7s2.8,3.8,3,9.9c3.5,2,5,4.5,6.5,8c1.2,2.8,0.5,4.2,1.2,5.1
				c0.7-3,3-4.3,3-4.3s-0.4,12.8,0.9,15c1.6-1.5,5.4,7.8,5.4,7.8l1.9-4.6c0,0,8.4,10.9,8.6,12.9c0,0,5.5,2,4.9,7
				c-0.7,5-4.1,10-9.3,18.5c0,0-2.1,14.3-1.4,17.6c0.7,3.3,7.5,2,9,5.8c1.5,3.9,5.7,18.6,10.1,21c4.3,2.3,51.3,28.4,51.3,28.4
				l9,88.8H24.9L37,240.8z"/>
		</defs>
		<clipPath id="SVGID_6_">
			<use xlink:href="#SVGID_5_"  overflow="visible"/>
		</clipPath>
		<path clip-path="url(#SVGID_6_)" fill="#B1CBEA" d="M88.1,122.6c0,0-10.6-16.5-0.2-31.1l1.7,2.5c0,0,0.9-5.5,5.7-7.3
			c0,0,7.3,15.3,17.8,13.5c10.5-1.8,14.6-18.2,14.6-18.2s5.2,10.5,5.7,13.1c0.5,2.6,6.2,3.8,6.2,6.5c0,2.7,3.9-1.8,3.9-1.8l0.2,16.2
			l4.1,1.6l8.9,7.3l3.6,10.3l-9.4,1.4l-5.2,1.4l-2.3-4.6l-3.9,1.1l-8-8.2c0,0-3.6-6.8-3.2-17.1c-4.8,3-10.3,7.1-21.2,5.7
			c-10.9-1.4-15.1-0.5-15.1-0.5L88.1,122.6z"/>
	</g>
	<path clip-path="url(#SVGID_4_)" fill="#B1CBEA" d="M44.1,265.7l2.6-14.1l2.4,7.7l11.6-27.8c0,0,1.5,11.6,0.6,18
		c-0.9,6.4-5.2,33.9-1.2,41.5c4,7.6,36,25.9,36,25.9l3.4-40.9l-3.7,9.8l3.4-43c0,0-12.7,3.4-14.2-3.6c0,0,13.2-10.7,20.9-10.1
		s21.4,3.4,21.4,3.4s7,4.3,10.4,2.4c3.4-1.8,30.5-29.1,30.5-29.1l-29.9,37.3c0,0-3.4,2.1-7.9,0.9c-4.6-1.2-14.3-4-14.3-4
		s2.5,7.9-3.7,10.7l-0.9,7.3c0,0,5.3,2.7,5.9,7.6c0.6,4.9-6.3,7-6.3,7v5.7c0,0,6.8,2.8,7.1,7.4s-8.2,10.6-8.2,10.6l0.6,2.3
		c0,0,8.2,6.6,7.6,10.2c-0.6,3.6-7.6,7.2-7.6,7.2l-0.6,4.3c0,0,43.3,2.3,57.3-11.5c14-13.8,9.9-49.2,27.9-63.6v9.8l7.2-11
		c0,0-2.9,21.7,0,26.6c2.9,4.9-14.8,49.8-76.5,54.3S48.3,295.5,44.1,265.7z"/>
	<path clip-path="url(#SVGID_4_)" fill="#B1CBEA" d="M100.3,141c0,0,5-0.7,5.7,1c0.7,1.7-0.1,7.7,3.9,10v-3.5c0,0,2.7,7.8,10.1,8.2
		c7.4,0.4,11.6-6.1,13.1-8.6c0,0,4,0.4,4,2.9c0,2.5-3.6,13.5-3.6,13.5s-2.1-3.6-4-3.6c0,0,2.7,8.9,0.6,10.7
		c-2.1,1.7-11.6,3.2-12.4,2.1c-0.8-1.1-9-6.8-11.9-6.8c-2.9,0-9.7,0.8-9.7,0.8l-6.4,4.5l2.2,4.8c0,0,6.3-4.6,7.7-5.1
		c1.3-0.6,8.5,0.4,8.5,0.4l19,11.6l-8.2,8.8L93.8,203c0,0,3.8,9.4,6.7,9.9c2.9,0.5,5.1,0.1,7.8,0.4c2.7,0.3,7.4-0.9,9.5,3.2
		c0,0,21-13.4,27-16.7c6-3.3,8.7-9.2,7.4-13.1c-1.3-3.9,0.2-24.7,0.2-24.7l-2.3-2.2c0,0,2.9,0.2,7-6.6c4.2-6.8,4.4-13.3,1-14.5
		c-5.3-1.8-9.6,2.5-9.6,2.5l-17.1-4c0,0-0.2-3.2-3.3-3.6c-3-0.4-18.6,0.2-18.6,0.2l-0.4,3.2h-8c0,0,0-2.8-2.1-3.2
		c-2.1-0.4-12.7-0.4-12.7-0.4s-2.1,2.6-1.1,4.9c1,2.3,1.7,10.7,1.7,10.7s4.2,2.1,7.6,0.5S100.3,141,100.3,141z"/>
	<g clip-path="url(#SVGID_4_)">
		<g>
			<path fill="#6C94CD" d="M98.9,212c0,0-13.5-4.4-13.1-2.1c0.5,2.3,0.2,7.8-0.7,13.2c-0.9,5.3-2.4,14.9,2.8,15.2
				c5.2,0.3,12.3-5.1,16.6-5.5c4.2-0.5,13-0.8,13-0.8s15.4,8.9,17.9,6.4c2.5-2.6-1.1-12.2-1.1-12.2s1.1-13.7-1.3-14.1
				c-2.4-0.4-17.1,3.7-17.1,3.7s-2-2.4-7.2-2.4c-5.2,0-5.9,2.2-5.9,2.2L98.9,212z"/>
			<g>
				<path fill="#504D48" d="M110.2,239.3c0,0-2.6,4.2,0.7,9.9L110.2,239.3z"/>
			</g>
			<path fill="#4271B7" d="M86.5,218.8l2.9,4.1c0,0-2.4,3.8-2.3,6c0.1,2.3-0.4,4.3,3.8,2.7l6.6-4.5l-1.8-0.5l1.7-0.9l-1.3-1.8
				l4.6-2.5l1.7-2.4c0,0-0.5,9.3,2.7,10.2c3.2,0.9,8.7,1.2,9.4-1.1l0.1-2.9l-0.8,1.5l-0.7-9.1l1.3,2.5c0,0,1.7-3.2-0.3-5.6
				c0,0,3.4,0.1,4.1,2.5c0.7,2.3,0.9,5,0.9,5h7.4l-5.2,1.7l4.9,6l-4.7-0.9c0,0,5.9,4.5,8.7,5.4c2.7,0.9,2.8-3.9,1.4-6.8
				c0-0.1-0.1-0.2-0.1-0.3c-1.5-2.9-0.4,1.1-0.4,1.1s-2.8-2.8-2-5.6c0.8-2.8,4.6-7.4,2.8-9.2c0,0,1.4-1.2,2.2-0.4s-1,9-0.3,10.5
				c0.8,1.6,3.8,13.2,1.9,14.5c-1.8,1.3-14.6-3.6-15.5-4.2c-0.8-0.6-3.5-1.8-6-1.3c-2.5,0.5-11.9-0.2-11.9-0.2s-12.6,7-15.6,5.7
				c-2.9-1.3-3.3-5.6-2.7-8.1C84.7,227.4,86.5,218.8,86.5,218.8z"/>
			<g>
				<path fill="#504D48" d="M110.2,260.8c0,0-2.6,4.2,0.7,9.9L110.2,260.8z"/>
			</g>
			<g>
				<path fill="#504D48" d="M110.2,281.7c0,0-2.6,4.2,0.7,9.9L110.2,281.7z"/>
			</g>
			<g>
				<path fill="#504D48" d="M110.2,303.2c0,0-2.6,4.2,0.7,9.9L110.2,303.2z"/>
			</g>
			<g>
				<path fill="#504D48" d="M92.4,176h-3.1c0-4-3.3-21.6-4.6-27.7c-0.6-2.9-0.2-6.2-0.1-7.2l-1-3.7l4-31.1l3.1,0.4l-3.9,30.5
					l1.1,3.7l-0.1,0.4c0,0-0.6,3.6,0,6.6C87.8,147.9,92.4,170,92.4,176z"/>
			</g>
			<g>
				<path fill="#504D48" d="M85.6,124.4c0,0,0-0.1-0.1-0.2c-0.1-0.1-0.2-0.3-0.4-0.6c-0.3-0.5-0.8-1.2-1.3-2.2
					c-0.5-1-1.1-2.1-1.6-3.5c-0.6-1.4-1.1-3-1.7-4.7c-0.2-0.9-0.5-1.8-0.7-2.8c-0.1-0.5-0.2-1-0.3-1.5c-0.1-0.5-0.2-1-0.3-1.5
					c-0.2-1-0.3-2.1-0.5-3.2c-0.1-1.1-0.2-2.2-0.3-3.3c0-0.6,0-1.1,0-1.7l0-0.9l0-0.5l0-0.4c0-0.6,0-1.1,0.1-1.8
					c0-0.3,0.1-0.7,0.1-1l0.2-0.9c0.3-1.2,0.7-2.4,1.2-3.6c0.5-1.2,1.1-2.3,1.8-3.4c1.4-2.1,3.1-4,5-5.6c1.9-1.6,4-2.9,6.1-3.9
					c2.1-1,4.3-1.8,6.4-2.3c2.1-0.5,4.1-0.8,6-0.8c1.9-0.1,3.6,0,5.1,0.3c1.5,0.3,2.8,0.8,3.8,1.2c1,0.5,1.7,1,2.1,1.4
					c0.5,0.4,0.7,0.6,0.7,0.6s-0.3,0-0.9,0c-0.6,0-1.4,0-2.4-0.1c-1,0-2.2-0.1-3.6-0.1c-0.7,0-1.4,0-2.2-0.1c-0.8,0-1.6,0-2.4,0.1
					c-1.7,0.2-3.5,0.4-5.3,0.9c-1.8,0.5-3.8,1.2-5.6,2.1c-1.9,0.9-3.7,2-5.4,3.4c-1.7,1.3-3.3,2.9-4.5,4.7c-1.2,1.8-2.2,3.8-2.6,5.9
					l-0.2,0.8l-0.1,0.7c0,0.3-0.1,0.5-0.1,0.8l0,0.9L81.2,98c0-0.1-0.2,0-0.2,0v0l0.2,0.1l0.1,0.1l0.1,0.2l0,0.8
					c0,0.5,0,1.1,0.1,1.6c0.1,1.1,0.2,2.1,0.3,3.2c0.1,1,0.2,2,0.4,3c0.1,0.5,0.2,1,0.3,1.4c0.1,0.5,0.2,0.9,0.3,1.4
					c0.2,0.9,0.5,1.8,0.7,2.6c0.5,1.6,1,3.1,1.6,4.4c0.5,1.3,1.1,2.4,1.5,3.2c0.5,0.9,0.9,1.5,1.1,2c0.1,0.2,0.2,0.4,0.3,0.5
					c0.1,0.1,0.1,0.2,0.1,0.2L85.6,124.4z"/>
			</g>
			<g>
				<path fill="#504D48" d="M126.4,78.1c-5.2-2.9-12.3-3.3-18.4-1l-1.1-2.9c6.9-2.6,15-2.1,21,1.2L126.4,78.1z"/>
			</g>
			<g>
				<path fill="#504D48" d="M122,77.9c0.5-0.5,1-0.9,1.6-1.2c0.6-0.3,1.1-0.6,1.7-0.8c0.6-0.2,1.2-0.4,1.8-0.6
					c0.6-0.1,1.2-0.2,1.9-0.3c2.5-0.3,5.1-0.2,7.7,0.3c1.3,0.3,2.5,0.7,3.8,1.2c1.2,0.6,2.4,1.2,3.4,2.1c0.5,0.4,1,0.9,1.5,1.3
					c0.5,0.5,0.9,1,1.3,1.5c0.4,0.5,0.8,1.1,1.1,1.6c0.3,0.6,0.9,1.1,0.9,1.7v0l-0.7-0.6c0.8,0.3,1.5,0.6,2.1,1
					c0.7,0.4,1.3,0.7,2,1.1c0.7,0.4,1.3,0.8,1.9,1.3c0.6,0.4,1.2,0.9,1.8,1.4c0.6,0.5,1.2,1,1.7,1.5l0.8,0.8l0.8,0.8
					c0.5,0.6,1,1.2,1.5,1.8c0.2,0.3,0.5,0.6,0.7,0.9c0.2,0.3,0.5,0.6,0.7,0.9l0.6,1l0.6,1c0.2,0.3,0.4,0.7,0.5,1
					c0.2,0.3,0.4,0.7,0.5,1l0.5,1.1l0.4,1.1c0.3,0.7,0.5,1.5,0.7,2.2c0.2,0.7,0.4,1.5,0.5,2.2l0.2,1.1l0.2,1.1
					c0.1,0.8,0.2,1.5,0.2,2.3c0.1,0.8,0,1.5,0.1,2.3l0,0l0,0.1c-0.1,0.6-0.1,1.1-0.2,1.6c-0.1,0.5-0.2,1-0.3,1.6
					c-0.2,1-0.4,2.1-0.7,3.1c-0.2,0.5-0.3,1-0.5,1.5c-0.2,0.5-0.4,1-0.6,1.5c-0.2,0.5-0.4,1-0.7,1.5c-0.3,0.5-0.5,1-0.8,1.4
					l-0.4,0.7l-0.2,0.3l-0.1,0.3c-0.2,0.4-0.4,0.8-0.5,1.2c-0.3,0.8-0.5,1.7-0.6,2.6c-0.1,0.9-0.1,1.8,0.1,2.8
					c0.1,0.5,0.1,0.9,0.2,1.4c0.1,0.4,0.2,0.9,0.3,1.3l-2.5,0.9c-0.2-0.6-0.3-1.1-0.4-1.6c-0.1-0.5-0.2-1.1-0.3-1.6
					c-0.1-1.1-0.2-2.2-0.1-3.3c0.1-1.1,0.3-2.2,0.7-3.3c0.2-0.5,0.4-1.1,0.7-1.6l0.2-0.4l0.2-0.3l0.4-0.6c0.3-0.4,0.5-0.8,0.7-1.2
					c0.2-0.4,0.4-0.9,0.6-1.3c0.2-0.4,0.4-0.9,0.5-1.3c0.2-0.5,0.3-0.9,0.4-1.4c0.3-0.9,0.5-1.9,0.7-2.8c0.1-0.5,0.2-1,0.2-1.4
					c0.1-0.5,0.1-1,0.2-1.4l0,0.1c0-0.7,0-1.4-0.1-2.1c-0.1-0.7-0.1-1.4-0.2-2.1l-0.1-1l-0.2-1c-0.1-0.7-0.3-1.4-0.5-2
					c-0.2-0.7-0.4-1.3-0.6-2l-0.4-1l-0.4-1c-0.1-0.3-0.3-0.6-0.5-0.9c-0.2-0.3-0.3-0.6-0.5-0.9l-0.5-0.9l-0.6-0.9
					c-0.2-0.3-0.4-0.6-0.6-0.9c-0.2-0.3-0.4-0.6-0.6-0.8c-0.4-0.6-0.9-1.1-1.4-1.6l-0.7-0.8l-0.8-0.7c-0.5-0.5-1-0.9-1.6-1.4
					c-0.5-0.4-1.1-0.9-1.7-1.3c-0.6-0.4-1.2-0.8-1.8-1.2c-0.6-0.4-1.2-0.7-1.8-1c-0.6-0.3-1.3-0.6-1.8-0.9l-0.5-0.2l-0.2-0.4l0,0
					c-0.3-0.5-0.7-0.9-1-1.3c-0.3-0.4-0.7-0.8-1.1-1.2c-0.7-0.8-1.6-1.5-2.4-2.1c-1.8-1.2-3.8-2.1-5.9-2.6c-2.1-0.5-4.4-0.7-6.7-0.7
					c-0.6,0-1.1,0-1.7,0.1c-0.6,0-1.2,0-1.8,0c-0.6,0-1.2,0-1.8-0.1C123.3,78.1,122.7,78,122,77.9z"/>
			</g>
			<g>
				<path fill="#504D48" d="M151.9,163.5c-0.3,0-0.6,0-0.9-0.1c-2.3-0.7-3.8-1.7-4.5-3.1c-0.7-1.3-0.4-2.5-0.4-2.7l2.9,0.9
					c0,0,0,0,0-0.1c-0.1,0.4,0.4,1.3,2.8,2c1.2,0.2,6.3-4.8,9-12.1c0.8-2.3,2.5-7.9-0.8-9.9c-6.9-4.1-10.7,1.4-11.1,2l-2.6-1.7
					c1.9-3,7.6-7.5,15.3-3c4.1,2.4,4.6,8,1.5,15.2C160.8,156.3,155.9,163.5,151.9,163.5z"/>
			</g>
			<g>
				<path fill="#504D48" d="M158.3,139.6c0,0-0.2,0.2-0.6,0.6c-0.4,0.4-0.9,0.9-1.4,1.5c-0.3,0.3-0.5,0.6-0.8,1
					c-0.3,0.4-0.5,0.7-0.7,1.1c-0.1,0.2-0.2,0.4-0.3,0.6c-0.1,0.2-0.2,0.4-0.2,0.6c-0.1,0.2-0.1,0.4-0.2,0.6l-0.1,0.7l0,0l0,0l0,0
					c0-0.2,0,0,0-0.1l0,0.1l0,0.1l0,0.2l0,0.4c0,0.3-0.1,0.6-0.1,0.8c0,0.5,0,0.9-0.1,1.4c0,0.5,0,1,0,1.4c0,0.5,0,0.9,0,1.3
					c0,1.7,0.1,2.9,0.1,2.9s-0.2-0.2-0.6-0.6c-0.2-0.2-0.4-0.5-0.6-0.8c-0.2-0.3-0.4-0.7-0.6-1.1c-0.2-0.4-0.4-0.9-0.6-1.4
					c-0.1-0.5-0.3-1-0.4-1.6c0-0.3-0.1-0.6-0.1-0.9c0-0.3-0.1-0.7-0.1-0.9c0-0.3,0-0.6,0-0.8l0-0.4l0-0.2l0-0.1l0-0.1l0-0.1l0,0l0,0
					c0.1-0.3,0.2-0.7,0.2-1c0.1-0.3,0.2-0.6,0.4-1c0.2-0.3,0.3-0.6,0.5-0.9c0.2-0.3,0.4-0.5,0.6-0.8c0.4-0.5,0.9-0.9,1.3-1.2
					c0.5-0.3,0.9-0.6,1.3-0.8c0.9-0.4,1.6-0.5,2.2-0.6C158,139.6,158.3,139.6,158.3,139.6z"/>
			</g>
			<g>
				<polygon fill="#504D48" points="157.3,145.4 153.4,148.3 152.4,145.4 				"/>
			</g>
			<g>
				<path fill="#504D48" d="M152.3,190.3c-2.7-8.2-2-27.5-1.9-28.3l3.1,0.1c0,0.2-0.8,19.6,1.8,27.2L152.3,190.3z"/>
			</g>
			<g>
				<path fill="#504D48" d="M94.4,91c0,0,0.1,0.9,0.4,2.4c0.3,1.5,0.7,3.6,1.7,5.8c0.5,1.1,1.2,2.2,2.1,3.1c0.9,1,2.1,1.7,3.5,2.3
					c1.4,0.6,2.9,0.9,4.5,1.1c0.8,0.1,1.6,0.1,2.5,0.2l1.3,0c0.5,0,0.8,0,1.2-0.1c1.6-0.1,3.3-0.4,4.8-0.8c1.5-0.5,2.9-1.1,4.1-2
					c1.2-0.9,2.2-1.9,3-3c0.8-1.1,1.4-2.3,1.9-3.4c0.9-2.3,1.5-4.4,1.8-5.9c0.2-0.8,0.3-1.4,0.4-1.8c0.1-0.4,0.1-0.7,0.1-0.7
					s0.1,0.2,0.2,0.6c0.1,0.4,0.3,1,0.5,1.8c0.3,1.6,0.4,4-0.4,6.8c-0.4,1.4-1.1,2.9-2,4.3c-0.9,1.4-2.2,2.8-3.7,3.9
					c-1.5,1.1-3.2,2-5.1,2.6c-1.8,0.6-3.7,0.9-5.7,1c-0.5,0-1,0.1-1.4,0.1l-1.4,0c-0.9-0.1-1.9-0.1-2.8-0.2
					c-1.9-0.3-3.7-0.8-5.4-1.6c-1.7-0.8-3.2-1.9-4.3-3.2c-1.1-1.3-2-2.7-2.5-4.1c-0.5-1.4-0.7-2.7-0.8-3.9c0-1.2,0.1-2.2,0.2-3
					C93.9,91.9,94.4,91,94.4,91z"/>
			</g>
			<g>
				<path fill="#504D48" d="M87.9,98c0.2,0.7,0.3,1.3,0.5,2l0.2,0.9l0.3,0.9c0.2,0.6,0.4,1.2,0.6,1.7c0.1,0.3,0.2,0.5,0.4,0.8
					c0.1,0.3,0.3,0.5,0.4,0.8c0.1,0.2,0.3,0.5,0.4,0.7c0.1,0.2,0.3,0.5,0.5,0.7c0.2,0.2,0.4,0.4,0.5,0.6c0.2,0.2,0.4,0.4,0.6,0.6
					c0.2,0.2,0.4,0.4,0.6,0.6c0.2,0.2,0.4,0.4,0.7,0.6c0.4,0.4,0.9,0.7,1.4,1.1l-2.2,1.8l0,0l-0.2-0.5l-0.1-0.5l-0.3-1
					c-0.2-0.7-0.3-1.3-0.4-2c-0.1-0.7-0.2-1.4-0.2-2.1c0-0.4,0-0.8,0-1.2c0-0.2,0-0.4,0.1-0.6c0-0.2,0.1-0.5,0.2-0.7l2.9,0
					c0,0,0,0.1,0,0.1l0.1,0.2c0.1,0.1,0.1,0.2,0.2,0.3c0.1,0.2,0.3,0.4,0.4,0.6c0.3,0.4,0.7,0.8,1.2,1.1c0.9,0.6,2,1,3.1,1.2
					c0.3,0,0.6,0.1,0.9,0.1c0.3,0,0.6,0,0.9,0c0.6,0,1.2,0,1.8-0.1c0.6-0.1,1.2-0.2,1.9-0.3c0.6-0.1,1.2-0.3,1.9-0.4l0.8,3
					c-0.7,0.2-1.4,0.4-2.1,0.5c-0.7,0.1-1.4,0.2-2.1,0.3c-0.7,0.1-1.5,0.1-2.2,0.1c-0.4,0-0.7,0-1.1-0.1c-0.4,0-0.8-0.1-1.1-0.1
					c-0.4-0.1-0.8-0.1-1.1-0.3c-0.4-0.1-0.7-0.2-1.1-0.4c-0.7-0.3-1.4-0.7-2.1-1.1c-0.7-0.5-1.3-1-1.8-1.7c-0.3-0.3-0.5-0.7-0.7-1
					c-0.1-0.2-0.2-0.4-0.3-0.6l-0.1-0.3c0-0.1-0.1-0.2-0.1-0.4l2.9,0c-0.1,0.3-0.1,0.8-0.1,1.4c0,0.6,0.1,1.1,0.2,1.7
					c0.1,0.6,0.2,1.2,0.4,1.8l0.2,0.9l0.1,0.4l0.1,0.4l0,0c0.4,0.7,0.2,1.5-0.5,1.9c-0.4,0.2-0.9,0.2-1.2,0.1l-0.4-0.2
					c-0.7-0.3-1.3-0.6-1.9-1.1l-0.5-0.3l-0.4-0.4c-0.3-0.2-0.6-0.5-0.8-0.8c-0.2-0.3-0.5-0.6-0.7-0.9c-0.2-0.3-0.5-0.6-0.7-0.9
					c-0.2-0.3-0.4-0.6-0.6-1c-0.2-0.3-0.3-0.7-0.5-1c-0.3-0.7-0.5-1.4-0.6-2.1c-0.1-0.7-0.2-1.5-0.1-2.2c0-0.7,0.1-1.4,0.3-2.1
					C87.2,99.3,87.5,98.6,87.9,98z"/>
			</g>
			<g>
				<path fill="#504D48" d="M147.7,139l-5.5-10.2l-1.7,3.7l-1.5-2.5c-1-1.7-1.6-4.3-1.9-6.7l-1,2.4l-1.6-2.3
					c-1.9-2.7-2.3-7.1-1.2-13c1.4-7.3-6.8-11.5-6.8-11.6l1.4-2.7c0.4,0.2,10.2,5.4,8.5,14.9c-0.5,2.9-0.7,5.4-0.4,7.3l4.1-9.7
					l-0.2,8.1c0,1.6,0.1,5.4,0.7,8.5l1.4-3.2l5.5,10.1l2-4.6l6.9,7l-2.2,2.2l-3.7-3.8L147.7,139z"/>
			</g>
			<g>
				<path fill="#504D48" d="M82.7,160.6c0,0-4.6,5.6,2.5,6.1c7.1,0.6,9.7-7.4,15.6-7.4c5.9,0,11.4-1.4,14.9,3.4
					c3.4,4.8,6.4,8.4,10.6,8.4c4.2,0,4.5-6.6,2.6-8.3c4.5-0.1,7.9,12.6-3.2,13.8c-10.8,1.2-16.6-7.9-16.6-7.9l-9.3,0
					c0,0-6.8,8.7-17.1,5.1C78.8,172.5,75.6,164.8,82.7,160.6z"/>
			</g>
			<g>
				<path fill="#504D48" d="M90.1,152.5c-3.8,0-6.8-1.2-9-3.5c-3.8-4.1-4.1-10.7-3.8-14.2c0.1-1.7,1.5-3.8,3.5-3.8h17.3
					c2,0,3.5,2.1,3.5,3.9c0.1,3.7-0.4,10.7-4.2,14.6C95.6,151.4,93.1,152.5,90.1,152.5z M98.2,134H80.8c-0.1,0-0.4,0.6-0.4,0.9
					c-0.1,2.4-0.2,8.5,3,11.9c1.6,1.7,3.8,2.6,6.7,2.6c2.1,0,3.8-0.6,5.1-2c3.2-3.3,3.4-9.9,3.3-12.5C98.6,134.6,98.3,134,98.2,134z
					"/>
			</g>
			<g>
				<path fill="#504D48" d="M120.1,152.5c-3.8,0-6.8-1.2-9-3.5c-3.8-4.1-4.1-10.7-3.8-14.2c0.1-1.7,1.5-3.8,3.5-3.8h17.3
					c2,0,3.5,2.1,3.5,3.9c0.1,3.7-0.4,10.7-4.2,14.6C125.6,151.4,123.1,152.5,120.1,152.5z M128.1,134h-17.3c-0.1,0-0.4,0.6-0.4,0.9
					c-0.1,2.4-0.2,8.5,3,11.9c1.6,1.7,3.8,2.6,6.7,2.6c2.1,0,3.8-0.6,5.1-2c3.2-3.3,3.4-9.9,3.3-12.5
					C128.6,134.6,128.3,134,128.1,134z"/>
			</g>
			<g>
				<polygon fill="#504D48" points="148.5,141 130,141 130,134.2 154.1,134.5 				"/>
			</g>
			<g>
				<rect x="100" y="135" fill="#504D48" width="9" height="4"/>
			</g>
			<g>
				<rect x="79" y="134" fill="#504D48" width="6" height="6"/>
			</g>
			<g>
				<path fill="#504D48" d="M90.8,139c0,0,1.5-2.1,2.4-2.1c0.9,0,6.8-0.1,6.8-0.1v2l-4.6-0.2c0,0-1,1.4-1.8,1.4s-1.5-0.9-1.5-0.9
					H90.8z"/>
			</g>
			<g>
				<path fill="#504D48" d="M113.3,140c0,0,1.3-2.4,2.2-2.4c0.9,0,10.8-0.2,10.8-0.2l-3.8,1.4l-3.3,0.2c0,0-1,1.7-2.3,1.7
					c-1.4,0-2.2-0.6-2.2-0.6H113.3z"/>
			</g>
			<g>
				<path fill="#504D48" d="M98.7,145.1c0,0-1.7,7.4-2.3,8.4c-0.6,1.1-3,4.2,2.4,6.5c0,0-1.3-2.8-1.2-3.8
					C97.5,155.6,99.5,150.1,98.7,145.1z"/>
			</g>
			<g>
				<path fill="#504D48" d="M104.5,157.7c0,0,2-2.1,4.5-1.2c0,0,1.2,1.3-0.2,1.2C107.3,157.6,106,157.6,104.5,157.7z"/>
			</g>
			<g>
				<path fill="#504D48" d="M112.6,153.2c0,0,0.1,0,0.3,0.2c0.2,0.1,0.4,0.3,0.7,0.6c0.1,0.1,0.2,0.3,0.4,0.5
					c0.1,0.2,0.2,0.4,0.3,0.6c0.1,0.2,0.2,0.4,0.2,0.7c0.1,0.2,0.1,0.5,0.1,0.8c0,0.3,0,0.5-0.1,0.8c-0.1,0.3-0.2,0.5-0.3,0.7
					c-0.1,0.1-0.1,0.2-0.2,0.3c-0.1,0.1-0.2,0.2-0.3,0.2c-0.1,0.1-0.2,0.1-0.3,0.2c-0.1,0.1-0.2,0.1-0.3,0.1
					c-0.2,0.1-0.3,0.2-0.5,0.2c-0.2,0-0.3,0-0.4,0c-0.2,0-0.3,0-0.3,0s0.1-0.1,0.2-0.3c0.1-0.1,0.1-0.2,0.2-0.3
					c0.1-0.1,0.1-0.3,0.2-0.4c0.1-0.1,0.1-0.3,0.2-0.4c0-0.1,0.1-0.1,0.1-0.2c0-0.1,0-0.1,0-0.2c0-0.1,0-0.3,0.1-0.4
					c0-0.1,0-0.3,0-0.5c0-0.2,0-0.3,0-0.5c0-0.1,0-0.2,0-0.3c0-0.1,0-0.2,0-0.3c0-0.4,0-0.7-0.1-1c0-0.3,0-0.6,0-0.8
					C112.5,153.3,112.6,153.2,112.6,153.2z"/>
			</g>
			<g>
				<path fill="#504D48" d="M89.3,175.3c0,0-3.7,1.6-3.4,8.4L87,183l-1.1,5h1.6c0,0-1.3,6.8-1,9.3c0.4,2.5,1.1,8.8,9.7,11l-0.8,0.7
					h3l4.5,0.7l-0.8-1.6c0,0,8.7,2.4,14.7-0.2v1.7c0,0,1-1.3,2-2.9v1.4l2.5-2.8c0,0,4.4-3.9,6-4.3c1.6-0.4,16.6-7.8,19.1-13.7
					l0.9,1.2c0,0-0.4-2.2,0-3.3c0.5-1.1,2-3.3,1.7-6.4c-0.2-3.1-1.7-14-1.7-14l-1.9-1.6l2,1l-1.4-1.3h1.3l-0.4-10.5l-1,0.9l-2.3-8.7
					l-0.6,6.7c0,0-2.8,8.3-3.7,10.5c-1.3,3.2-6.1,12.1-6.1,12.1h1.6l0,5.2l0.2,3.4l-2.5-3.2l-3.8,1.5v-2.2l-0.8,1.6l-2.1-1l-5.3,0.1
					l-0.3,3l1.6-0.5l-4.4,3.3c0,0-3.7,2.2-8.8,1.8c-5.1-0.4-2.8-3.9-3.2-5.7c-0.5-1.7,1.5-1.1,1.5-1.1l0.4-1.8c0,0,0.9-3.7-2.9-3.8
					c-3.8-0.1-4.5,5.7-4.5,5.7l1.4-0.6c0,0,1.3,4.8-1.3,5.1c-2.6,0.2-5.6-0.5-5.7-2c-0.1-1.5,1.1-4.4,1.1-4.4l-2.7,2.2l0.9-3.4
					l-1.2,0.4l-0.4-3.6C92.1,173.9,91.1,173.7,89.3,175.3z"/>
			</g>
			<g>
				<path fill="#504D48" d="M93.7,205l-40.6,12.5l1-0.9l-3.6,8.2l-0.1,0.2l-0.2,0.2l-7.2,8l0.4-1c0.1,0.6,0.2,1.2,0.2,1.8
					c0.1,0.6,0.1,1.2,0.1,1.8c0,1.2,0,2.4-0.1,3.6c-0.1,1.2-0.2,2.4-0.5,3.6c-0.1,0.6-0.3,1.2-0.5,1.8c-0.2,0.6-0.5,1.2-0.8,1.8
					c-0.3-0.6-0.6-1.2-0.8-1.8c-0.2-0.6-0.4-1.2-0.5-1.8c-0.3-1.2-0.4-2.4-0.5-3.6c-0.1-1.2-0.1-2.4-0.1-3.6c0-0.6,0-1.2,0.1-1.8
					c0.1-0.6,0.1-1.2,0.2-1.8l0.1-0.8l0.2-0.3l7.2-8l-0.3,0.4l3.6-8.2l0.3-0.6l0.7-0.2L92.8,202L93.7,205z"/>
			</g>
			<g>
				<polygon fill="#504D48" points="35.5,307.4 32.4,307.3 35.2,242.4 40.5,233.7 43.1,235.3 38.3,243.3 				"/>
			</g>
			<g>
				<path fill="#504D48" d="M52.3,305.4c-0.1-1.7-0.2-3.3-0.3-5l-0.2-5l-0.1-5l-0.1-5c-0.1-3.3-0.1-6.6-0.1-9.9l-0.2-5l-0.2-5v-0.2
					l0.3-0.1l0.9-3.2c0.3-1.1,0.6-2.1,0.9-3.2c0.6-2.1,1.1-4.3,1.7-6.4c0.3-1.1,0.6-2.1,0.9-3.2l0.9-3.2l1-3.2
					c0.3-1.1,0.7-2.1,1-3.2c-0.1,1.1-0.2,2.2-0.3,3.3l-0.4,3.3l-0.5,3.3c-0.2,1.1-0.3,2.2-0.5,3.3c-0.3,2.2-0.7,4.4-1.1,6.5
					c-0.2,1.1-0.4,2.2-0.6,3.3l-0.6,3.3l0-0.4l0.2,5l0.2,5c0.1,3.3,0.2,6.6,0.3,9.9l0.1,5l0.1,5l0,5c0,1.7,0,3.3-0.1,5L52.3,305.4z"
					/>
			</g>
			<g>
				<path fill="#504D48" d="M47.2,258.3c0,0-0.1,2.2,0.2,5.4c0.1,1.6,0.3,3.5,0.6,5.5c0.2,1,0.3,2,0.5,3.1c0.1,0.5,0.2,1,0.3,1.6
					c0.1,0.5,0.2,1,0.3,1.6c0.2,1.1,0.5,2.1,0.7,3.1c0.2,1,0.6,2,0.8,3c0.3,1,0.6,1.9,0.9,2.7c0.2,0.4,0.3,0.9,0.4,1.3
					c0.2,0.4,0.3,0.8,0.5,1.2c0.3,0.7,0.6,1.4,0.8,2c0.3,0.6,0.5,1.1,0.7,1.5c0.4,0.8,0.6,1.3,0.6,1.3l-3,1.3c0,0-0.2-0.5-0.5-1.4
					c-0.2-0.5-0.4-1-0.6-1.7c-0.2-0.6-0.4-1.4-0.6-2.2c-0.1-0.4-0.2-0.8-0.4-1.2c-0.1-0.4-0.2-0.9-0.3-1.3c-0.2-0.9-0.5-1.9-0.7-2.9
					c-0.2-1-0.4-2.1-0.6-3.1c-0.2-1.1-0.3-2.2-0.5-3.2c-0.1-0.5-0.1-1.1-0.2-1.6c0-0.5-0.1-1.1-0.1-1.6c-0.1-1.1-0.1-2.1-0.2-3.2
					c-0.1-2-0.1-4-0.1-5.6C46.9,260.4,47.2,258.3,47.2,258.3z"/>
			</g>
			<g>
				<path fill="#504D48" d="M233.3,305.4l-3.3-0.1c0.4-25.8-11.8-60.2-11.9-60.5l-0.1-0.2l-1-12.6l-49.8-26.6l-7.4-19.3l-7.6-2.3
					l1-3.1l9.1,2.8l7.6,19.7l50.3,26.9l1.1,13.9C222.4,247.2,233.7,279.8,233.3,305.4z"/>
			</g>
			<g>
				<path fill="#504D48" d="M104.3,232.3c-1-0.5-1.8-1.2-2.5-1.8c-3.9,2.3-10.8,6-14.2,6c-0.6,0-0.8-0.1-1-0.2
					c-2-1.1-0.7-6.5,0.1-9.8c0.4-1.7,0.7-3.1,0.7-4.1c0-1.7-0.3-3.6-0.6-5.5c-0.3-1.7-0.9-5.3-0.3-5.9c0,0,0.2-0.1,1-0.1
					c3.4,0,10.4,2.9,15.1,5.1c0.5-1,1.1-1.9,1.7-2.8c-4.4-2.1-12.5-5.6-16.8-5.6c-1.3,0-2.3,0.3-3.1,0.9c-2,1.7-1.5,5-0.8,8.9
					c0.3,1.7,0.6,3.5,0.6,5c0,0.6-0.3,2-0.7,3.4c-1.1,4.6-2.6,11,1.5,13.4c0.7,0.4,1.6,0.6,2.6,0.6c0,0,0,0,0,0
					c5.7,0,16.3-6.7,17.7-7.6c-0.1-0.1-0.2-0.1-0.3-0.2C105,232.3,104.7,232.5,104.3,232.3z"/>
			</g>
			<g>
				<path fill="#504D48" d="M136.6,227.3c-0.7-1.9-1.4-3.8-1.4-4.7c0-0.8,0.2-2.1,0.5-3.4c0.7-3.9,1.5-8.4-1.7-9.2
					c-0.3-0.1-0.6-0.1-0.9-0.1c-3.1,0-12.4,3-16.8,4.5c0.5,1,1.1,1.9,1.5,3c5.7-1.9,13-4.2,15.2-4.2c0.3,0.9-0.2,3.9-0.5,5.4
					c-0.3,1.5-0.5,2.9-0.5,4c0,1.5,0.7,3.5,1.6,5.9c1.1,3,2.8,7.5,1.2,8.4c-0.1,0.1-0.4,0.2-1,0.2c-3.9,0-11.9-4.5-15.4-6.7l0-0.1
					c-0.6,0.9-1.6,1.7-2.5,2.3l0.2,0.1c1.2,0.8,12,7.7,17.8,7.7c1,0,1.9-0.2,2.6-0.6C140.3,237.4,138.3,231.8,136.6,227.3z"/>
			</g>
			<g>
				<path fill="#504D48" d="M113.6,234h-8c-3.5,0-5.6-2.8-5.6-6.4V219c0-3.3,1.9-7,5.6-7h8c3.6,0,5.4,3.6,5.4,7v8.6
					C119,231.3,117,234,113.6,234z M105.6,215c-1.8,0-3.6,2.2-3.6,4v8.6c0,1.9,1.9,3.4,3.6,3.4h8c1.9,0,3.4-1.7,3.4-3.4V219
					c0-1.9-1.7-4-3.4-4H105.6z"/>
			</g>
			<g>
				<path fill="#504D48" d="M123,212.1c0,0,0.6-0.4,1.5-1c1-0.6,2.4-1.6,4.1-2.7c1.7-1.1,3.7-2.4,5.7-3.9c1-0.7,2.1-1.5,3.2-2.2
					c1.1-0.8,2.2-1.6,3.2-2.4c1.1-0.8,2.1-1.6,3.2-2.4c1-0.8,2-1.6,3-2.4c0.5-0.4,0.9-0.8,1.4-1.2c0.4-0.4,0.9-0.8,1.3-1.2
					c0.8-0.8,1.6-1.5,2.2-2.3c0.7-0.7,1.2-1.4,1.8-2c0.5-0.6,1.1-1,1.5-1.4c0.5-0.4,0.8-0.7,1.1-0.9c0.3-0.2,0.5-0.3,0.5-0.3
					s0,0.2,0.1,0.6c0,0.4,0,0.9-0.1,1.5c-0.1,0.7-0.4,1.4-0.8,2.2c-0.2,0.4-0.5,0.8-0.7,1.2c-0.3,0.4-0.6,0.8-0.9,1.2
					c-0.7,0.8-1.4,1.7-2.2,2.6c-0.4,0.4-0.8,0.9-1.3,1.3c-0.4,0.4-0.9,0.9-1.4,1.3c-1.9,1.8-4,3.6-6.2,5.3c-1.1,0.8-2.2,1.7-3.3,2.5
					c-1.1,0.8-2.2,1.6-3.3,2.3c-2.1,1.4-4.2,2.7-5.9,3.8c-1.8,1.1-3.3,1.9-4.3,2.5c-1.1,0.6-1.7,0.9-1.7,0.9L123,212.1z"/>
			</g>
			<g>
				
					<rect x="151" y="197.8" transform="matrix(0.7161 0.698 -0.698 0.7161 197.3942 -43.8706)" fill="#504D48" width="3.3" height="45.7"/>
			</g>
			<g>
				<path fill="#504D48" d="M182.2,305l1.6-21.4l0.3-0.1v0c0-1.2,0.2-2.4,0.5-3.6c0.3-1.2,0.4-2.3,0.7-3.5c0.3-1.2,0.6-2.3,0.9-3.5
					c0.3-1.2,0.6-2.3,1-3.5c0.2-0.6,0.4-1.1,0.5-1.7c0.2-0.6,0.4-1.1,0.6-1.7c0.4-1.1,0.8-2.3,1.3-3.4c0.2-0.6,0.5-1.1,0.7-1.7
					c0.2-0.6,0.5-1.1,0.8-1.6c0.3-0.5,0.5-1.1,0.8-1.6l0.9-1.6l-0.7,1.7c-0.2,0.5-0.4,1.1-0.6,1.7c-0.2,0.6-0.4,1.1-0.6,1.7
					c-0.2,0.6-0.4,1.1-0.5,1.7c-0.3,1.1-0.6,2.3-0.9,3.5c-0.1,0.6-0.3,1.2-0.4,1.7c-0.1,0.6-0.2,1.2-0.3,1.7
					c-0.2,1.2-0.4,2.3-0.6,3.5c-0.2,1.2-0.4,2.3-0.5,3.5c-0.2,1.2-0.3,2.3-0.4,3.5c-0.1,1.2-0.2,2.4-0.3,3.5l0-0.3l1.3,21.4H182.2z"
					/>
			</g>
			<g>
				<polygon fill="#504D48" points="198.7,251.8 195.8,288.5 189.7,287.5 				"/>
			</g>
			<g>
				<path fill="#504D48" d="M118.2,141.7c0,0,3.9-0.5,5.8-2C124,139.7,122.2,142.8,118.2,141.7z"/>
			</g>
			<g>
				<path fill="#504D48" d="M90.8,139.7c0,0,0.4,1.3,2.1,1.7C93,141.4,90.2,142.4,90.8,139.7z"/>
			</g>
			<g>
				<rect x="103" y="233" fill="#504D48" width="3" height="86"/>
			</g>
			<g>
				<g>
					<circle fill="#504D48" cx="112.4" cy="244.1" r="3.2"/>
				</g>
				<g>
					<path fill="#504D48" d="M110.3,244.6c0-1.2,0.9-2.1,2.1-2.1c1.2,0,2.1,0.9,2.1,2.1c0,0.1,0,0.3,0,0.4c0.1-0.3,0.2-0.6,0.2-0.9
						c0-1.2-1-2.3-2.3-2.3c-1.2,0-2.3,1-2.3,2.3c0,0.3,0.1,0.6,0.2,0.9C110.3,244.9,110.3,244.8,110.3,244.6z"/>
				</g>
			</g>
			<g>
				<g>
					<circle fill="#504D48" cx="112.4" cy="265.3" r="3.2"/>
				</g>
				<g>
					<path fill="#504D48" d="M110.3,265.8c0-1.2,0.9-2.1,2.1-2.1c1.2,0,2.1,0.9,2.1,2.1c0,0.1,0,0.3,0,0.4c0.1-0.3,0.2-0.6,0.2-0.9
						c0-1.2-1-2.3-2.3-2.3c-1.2,0-2.3,1-2.3,2.3c0,0.3,0.1,0.6,0.2,0.9C110.3,266,110.3,265.9,110.3,265.8z"/>
				</g>
			</g>
			<g>
				<g>
					<circle fill="#504D48" cx="112.4" cy="286.4" r="3.2"/>
				</g>
				<g>
					<path fill="#504D48" d="M110.3,286.9c0-1.2,0.9-2.1,2.1-2.1c1.2,0,2.1,0.9,2.1,2.1c0,0.1,0,0.3,0,0.4c0.1-0.3,0.2-0.6,0.2-0.9
						c0-1.2-1-2.3-2.3-2.3c-1.2,0-2.3,1-2.3,2.3c0,0.3,0.1,0.6,0.2,0.9C110.3,287.2,110.3,287.1,110.3,286.9z"/>
				</g>
			</g>
			<g>
				<g>
					<circle fill="#504D48" cx="112.4" cy="307.6" r="3.2"/>
				</g>
				<g>
					<path fill="#504D48" d="M110.3,308.1c0-1.2,0.9-2.1,2.1-2.1c1.2,0,2.1,0.9,2.1,2.1c0,0.1,0,0.3,0,0.4c0.1-0.3,0.2-0.6,0.2-0.9
						c0-1.2-1-2.3-2.3-2.3c-1.2,0-2.3,1-2.3,2.3c0,0.3,0.1,0.6,0.2,0.9C110.3,308.4,110.3,308.2,110.3,308.1z"/>
				</g>
			</g>
			<g>
				
					<rect x="92.1" y="208" transform="matrix(0.666 0.7459 -0.7459 0.666 188.7132 -2.2871)" fill="#504D48" width="9.7" height="3.3"/>
			</g>
		</g>
	</g>
</g>
<path fill="#504D48" d="M122.1,56c55.2,0,100.1,59.8,100.1,133.2s-44.9,133.2-100.1,133.2C66.9,322.5,22,262.7,22,189.3
	S66.9,56,122.1,56 M122.1,50.2c-58.5,0-105.9,62.3-105.9,139.1s47.4,139.1,105.9,139.1c58.5,0,105.9-62.3,105.9-139.1
	S180.6,50.2,122.1,50.2L122.1,50.2z"/>
<g>
	<path fill="#FFFFFF" d="M40.8,334.4c-11.5-4.4-30.1-0.3-30.1-0.3l7.9-25.2l-7.9-23.1c0,0,32.6-6.4,38.7,0
		c6.1,6.4-9.7,15.8-9.7,15.8S52.3,338.8,40.8,334.4z"/>
	<path fill="#FFFFFF" d="M204.6,334.4c11.5-4.4,30.1-0.3,30.1-0.3l-7.9-25.2l7.9-23.1c0,0-32.6-6.4-38.7,0
		c-6.1,6.4,9.7,15.8,9.7,15.8S193.1,338.8,204.6,334.4z"/>
	<g>
		<path fill="#FFFFFF" d="M223.7,345.7c0.9,1.2,1,2.8,0.3,4.3c-0.7,1.5-2.1,2.7-3.9,3.2c-63.7,19.4-131.7,19.4-195.4,0
			c-1.8-0.5-3.3-1.8-3.9-3.3c-0.7-1.5-0.5-3.2,0.5-4.4c3.4-4.3,7.8-11.2,10.3-19c2.2-7.2,2.5-13.9,2.4-18.7c0-1.6,0.7-3.1,2-4
			c1.3-0.9,3-1.2,4.5-0.7c53.5,16.3,110.6,16.2,164,0c1.5-0.5,3.1-0.2,4.4,0.7c1.3,0.9,2.1,2.3,2.1,3.8c0.1,4.5,0.7,11.1,3.1,18.7
			C216.6,334.6,220.6,341.4,223.7,345.7z"/>
	</g>
</g>
<g>
	<path fill="#FFFFFF" d="M204.6,43.6c11.5,4.4,30.1,0.3,30.1,0.3l-7.9,25.2l7.9,23.1c0,0-32.6,6.4-38.7,0
		c-6.1-6.4,9.7-15.8,9.7-15.8S193.1,39.3,204.6,43.6z"/>
	<path fill="#FFFFFF" d="M40.8,43.6c-11.5,4.4-30.1,0.3-30.1,0.3l7.9,25.2l-7.9,23.1c0,0,32.6,6.4,38.7,0c6.1-6.4-9.7-15.8-9.7-15.8
		S52.3,39.3,40.8,43.6z"/>
	<g>
		<path fill="#FFFFFF" d="M18.4,33.5c-1-1.2-1.2-2.8-0.6-4.3c0.6-1.5,2.1-2.9,3.8-3.6c65.2-25.3,137.6-25.3,202.8,0
			c1.8,0.7,3.3,2.1,3.9,3.7c0.6,1.6,0.3,3.2-0.8,4.4c-3.9,4-8.8,10.5-11.8,18.1c-2.8,7-3.5,13.7-3.7,18.5c-0.1,1.6-0.9,2.9-2.3,3.8
			c-1.4,0.8-3.1,0.9-4.6,0.3c-52.8-20.4-111.3-20.4-164.2,0c-1.5,0.6-3.1,0.5-4.5-0.3c-1.4-0.8-2.2-2.1-2.4-3.6
			c-0.4-4.5-1.5-11-4.4-18.4C26.4,44,21.8,37.5,18.4,33.5z"/>
	</g>
</g>
<g>
	<g>
		<path fill="#504D48" d="M71.5,333.1c-0.1,1-0.3,2.1-0.4,3.1c-0.2,1.3-0.8,2.1-1.9,2.5c-1.1,0.4-2.6,0.4-4.4,0.1
			c-0.8-0.1-1.5-0.2-2.3-0.4c-0.3,1.8-0.6,3.5-0.9,5.3c-0.8-0.1-1.6-0.3-2.3-0.4c0.9-4.9,1.7-9.8,2.6-14.7c1.6,0.3,3.2,0.6,4.9,0.8
			c0.6,0.1,1.1,0.2,1.6,0.3c0.4,0.1,0.9,0.2,1.4,0.4c0.5,0.2,0.9,0.4,1.1,0.7c0.3,0.2,0.5,0.6,0.6,1
			C71.5,332.1,71.6,332.5,71.5,333.1z M68.9,335.7c0.1-0.9,0.3-1.8,0.4-2.7c0.1-0.4,0-0.8-0.2-1.1c-0.2-0.3-0.5-0.5-0.8-0.7
			c-0.4-0.2-0.7-0.3-1-0.3c-0.3-0.1-0.6-0.1-1-0.2c-0.8-0.1-1.7-0.3-2.5-0.4c-0.4,2.2-0.7,4.4-1.1,6.7c0.9,0.1,1.7,0.3,2.6,0.4
			c0.9,0.1,1.7,0.1,2.4-0.1C68.3,337,68.7,336.5,68.9,335.7z"/>
		<path fill="#504D48" d="M82.8,346.6c-0.7-0.1-1.4-0.2-2.2-0.2c0.3-2.7,0.6-5.3,0.9-8c0-0.3,0-0.5,0-0.7c0-0.2-0.1-0.4-0.2-0.6
			c-0.1-0.2-0.4-0.4-0.7-0.5c-0.3-0.1-0.8-0.2-1.3-0.3c-1.3-0.2-2.2-0.1-2.6,0.1c-0.4,0.2-0.7,0.7-0.8,1.3c-0.3,2.7-0.7,5.3-1,8
			c-0.7-0.1-1.4-0.2-2.2-0.3c0.7-5.3,1.4-10.7,2.2-16c0.7,0.1,1.4,0.2,2.1,0.3c-0.3,2.1-0.5,4.2-0.8,6.3c0.4-1,1.7-1.4,3.9-1.1
			c1.5,0.2,2.5,0.6,3,1.1c0.5,0.6,0.7,1.4,0.6,2.5C83.4,341.2,83.1,343.9,82.8,346.6z"/>
		<path fill="#504D48" d="M97.4,340.4c-0.1,1.3-0.2,2.6-0.3,3.9c0,0.7-0.2,1.3-0.4,1.7c-0.2,0.5-0.5,0.8-0.8,1.1
			c-0.3,0.2-0.7,0.4-1.2,0.5c-0.5,0.1-1,0.1-1.5,0.1c-0.5,0-1.1,0-1.8-0.1c-1-0.1-1.7-0.2-2.3-0.3c-0.5-0.1-1.1-0.3-1.6-0.6
			c-0.5-0.3-0.9-0.7-1-1.2c-0.2-0.5-0.2-1.2-0.1-2.1c0.1-1.3,0.3-2.6,0.4-3.9c0.1-0.7,0.2-1.3,0.5-1.8c0.2-0.5,0.5-0.9,0.8-1.1
			c0.3-0.3,0.7-0.4,1.2-0.5c0.5-0.1,1-0.1,1.4-0.1c0.4,0,1,0,1.8,0.1c0.7,0.1,1.3,0.1,1.8,0.2c0.4,0.1,0.9,0.2,1.4,0.4
			c0.5,0.2,0.9,0.4,1.1,0.7c0.2,0.3,0.4,0.7,0.6,1.2C97.4,339.1,97.5,339.7,97.4,340.4z M94.9,344.4c0.1-1.5,0.2-3,0.3-4.5
			c0.1-1-0.1-1.7-0.5-2c-0.4-0.3-1.2-0.5-2.4-0.6c-1.2-0.1-2,0-2.5,0.2c-0.4,0.2-0.7,0.8-0.8,1.8c-0.1,1.5-0.3,3-0.4,4.5
			c0,0.5,0,0.9,0.1,1.2c0.1,0.3,0.3,0.5,0.6,0.7c0.3,0.2,0.6,0.3,0.9,0.3c0.3,0.1,0.8,0.1,1.4,0.2c0.6,0.1,1.1,0.1,1.4,0.1
			c0.3,0,0.6-0.1,1-0.2c0.3-0.1,0.5-0.3,0.7-0.6C94.8,345.3,94.9,344.9,94.9,344.4z"/>
		<path fill="#504D48" d="M107.7,348.4c-0.8,0.1-1.6,0.1-2.5,0.1c-1.5-0.1-2.5-0.4-3-0.9c-0.6-0.5-0.8-1.4-0.7-2.8
			c0.1-2.2,0.2-4.4,0.4-6.5c-0.8,0-1.7-0.1-2.5-0.1c0-0.5,0.1-0.9,0.1-1.4c0.8,0.1,1.7,0.1,2.5,0.1c0.1-1.2,0.1-2.3,0.2-3.5
			c0.7,0,1.4,0.1,2.1,0.1c-0.1,1.2-0.1,2.3-0.2,3.5c1.4,0.1,2.7,0.1,4.1,0.2c0,0.5,0,0.9-0.1,1.4c-1.4-0.1-2.7-0.1-4.1-0.2
			c-0.1,2.2-0.2,4.4-0.3,6.7c0,0.8,0.1,1.3,0.4,1.6c0.3,0.3,1,0.4,1.9,0.5c0.3,0,0.8,0,1.7-0.1C107.7,347.5,107.7,348,107.7,348.4z"
			/>
		<path fill="#504D48" d="M120.4,341.2c0,1.3,0,2.6,0,3.9c0,0.7-0.1,1.3-0.3,1.8c-0.2,0.5-0.4,0.8-0.7,1.1c-0.3,0.3-0.7,0.5-1.2,0.6
			c-0.5,0.1-1,0.2-1.5,0.2c-0.5,0-1.1,0-1.8,0c-1,0-1.7-0.1-2.3-0.1c-0.5-0.1-1.1-0.2-1.6-0.5c-0.5-0.3-0.9-0.6-1.1-1.2
			c-0.2-0.5-0.3-1.2-0.3-2.1c0-1.3,0.1-2.6,0.1-3.9c0-0.7,0.1-1.4,0.3-1.9c0.2-0.5,0.4-0.9,0.7-1.2c0.3-0.3,0.7-0.5,1.2-0.6
			c0.5-0.1,1-0.2,1.4-0.2c0.4,0,1,0,1.8,0c0.8,0,1.3,0,1.8,0.1c0.4,0,0.9,0.1,1.4,0.3c0.5,0.2,0.9,0.4,1.1,0.6
			c0.3,0.3,0.5,0.7,0.7,1.2C120.3,339.9,120.4,340.5,120.4,341.2z M118.2,345.4c0-1.5,0-3,0-4.5c0-1-0.2-1.7-0.6-1.9
			c-0.4-0.3-1.2-0.4-2.4-0.4c-1.2,0-2,0.1-2.5,0.3c-0.4,0.2-0.7,0.9-0.7,1.9c0,1.5-0.1,3-0.1,4.5c0,0.5,0,0.9,0.1,1.2
			c0.1,0.3,0.3,0.5,0.6,0.6c0.3,0.1,0.6,0.2,0.9,0.3c0.3,0,0.8,0.1,1.4,0.1c0.6,0,1.1,0,1.4,0c0.3,0,0.6-0.1,0.9-0.2
			c0.3-0.1,0.5-0.3,0.6-0.6C118.1,346.3,118.2,345.9,118.2,345.4z"/>
		<path fill="#504D48" d="M133.4,337.2c0.1,4.1,0.3,8.1,0.4,12.2c0.1,1.6-0.4,2.7-1.3,3.2c-0.9,0.6-2.3,0.9-4.2,0.9
			c-1.7,0-3.1,0-4.1-0.2c0-0.5,0-1,0-1.5c1.9,0.2,3.3,0.3,4.3,0.3c1.1,0,1.9-0.2,2.4-0.6c0.5-0.4,0.7-0.9,0.7-1.7
			c0-0.9-0.1-1.8-0.1-2.7c0,0.5-0.4,0.9-1.1,1.1c-0.7,0.2-1.5,0.4-2.5,0.4c-1.8,0-3-0.2-3.7-0.7c-0.7-0.5-1-1.4-1-2.6
			c0-1.5,0-3,0-4.5c0-1.3,0.4-2.3,1.1-2.8c0.7-0.6,1.9-0.9,3.6-0.9c2,0,3.1,0.4,3.5,1.2c0-0.4,0-0.7,0-1.1
			C132.1,337.3,132.7,337.3,133.4,337.2z M131.5,345.5c0-1.7-0.1-3.4-0.1-5c0-0.7-0.2-1.2-0.6-1.5c-0.4-0.3-1.2-0.4-2.5-0.3
			c-1.2,0-1.9,0.2-2.3,0.4c-0.4,0.3-0.5,0.8-0.5,1.5c0,1.7,0,3.4,0.1,5c0,0.8,0.2,1.3,0.6,1.5c0.4,0.2,1.2,0.3,2.4,0.3
			c1.1,0,1.9-0.2,2.4-0.4C131.3,346.7,131.5,346.2,131.5,345.5z"/>
		<path fill="#504D48" d="M143.3,338.3c-0.4,0-0.8,0-1.2,0.1c-1,0.1-1.7,0.2-2.1,0.5c-0.5,0.3-0.7,0.7-0.6,1.4
			c0.1,2.6,0.3,5.2,0.4,7.9c-0.7,0-1.5,0.1-2.2,0.1c-0.2-3.7-0.3-7.4-0.5-11.1c0.7,0,1.3-0.1,2-0.1c0,0.6,0.1,1.2,0.1,1.8
			c0-0.5,0.3-1,0.9-1.5c0.7-0.5,1.3-0.7,2-0.7c0.3,0,0.7,0,1-0.1C143.2,337.1,143.2,337.7,143.3,338.3z"/>
		<path fill="#504D48" d="M155.3,347c-0.7,0.1-1.4,0.1-2.1,0.2c0-0.4-0.1-0.7-0.1-1.1c-0.1,0.9-1.2,1.4-3.4,1.6
			c-1.6,0.1-2.7,0-3.4-0.5c-0.7-0.4-1-1.4-1.1-2.8c-0.1-1.2,0.1-2.1,0.7-2.6c0.5-0.5,1.6-0.8,3.2-0.9c1.1-0.1,2.3-0.2,3.4-0.3
			c-0.1-0.6-0.1-1.2-0.2-1.8c-0.1-0.6-0.3-1-0.7-1.2c-0.4-0.2-1.1-0.2-2.2-0.1c-1.2,0.1-2.5,0.3-3.9,0.6c0-0.5-0.1-1-0.1-1.5
			c1.5-0.2,2.9-0.4,4.2-0.5c1.9-0.2,3.2,0,3.8,0.4c0.6,0.4,1,1.3,1.1,2.7C154.8,341.8,155,344.4,155.3,347z M152.9,344.9
			c-0.1-1-0.2-2-0.3-3c-1.1,0.1-2.2,0.2-3.3,0.3c-1,0.1-1.6,0.2-1.8,0.5c-0.2,0.3-0.3,0.8-0.2,1.7c0.1,0.8,0.2,1.3,0.5,1.6
			c0.3,0.3,0.9,0.4,1.7,0.3c0.1,0,0.3,0,0.4,0c0.4,0,0.8-0.1,1-0.1c0.3,0,0.6-0.1,0.9-0.2c0.3-0.1,0.6-0.2,0.8-0.4
			C152.9,345.4,152.9,345.2,152.9,344.9z"/>
		<path fill="#504D48" d="M169.2,341.7c0.1,0.7,0.1,1.3-0.1,1.8c-0.1,0.5-0.4,0.9-0.6,1.2c-0.3,0.3-0.7,0.6-1.2,0.8
			c-0.5,0.2-1,0.4-1.4,0.5c-0.4,0.1-1,0.2-1.6,0.3c-0.6,0.1-1.3,0.1-1.9,0c-0.6-0.1-1-0.3-1.2-0.6c0.2,1.8,0.4,3.7,0.6,5.5
			c-0.7,0.1-1.5,0.2-2.2,0.2c-0.6-5.3-1.1-10.6-1.7-15.9c0.7-0.1,1.4-0.1,2.1-0.2c0,0.4,0.1,0.8,0.1,1.2c0,0,0,0,0,0
			c0.1-1,1.3-1.6,3.7-1.9c1.5-0.2,2.6,0,3.4,0.5c0.8,0.5,1.2,1.2,1.3,2.1C168.8,338.7,169,340.2,169.2,341.7z M167,342.3
			c-0.2-1.4-0.4-2.7-0.5-4.1c-0.1-1-0.4-1.6-0.9-1.9c-0.5-0.2-1.3-0.3-2.5-0.1c-1.2,0.1-1.9,0.4-2.3,0.7c-0.4,0.3-0.5,1-0.4,2
			c0.2,1.4,0.3,2.7,0.5,4.1c0.1,0.9,0.4,1.5,0.9,1.7c0.5,0.2,1.3,0.3,2.5,0.1c1.2-0.1,2-0.4,2.4-0.7
			C167,343.8,167.2,343.2,167,342.3z"/>
		<path fill="#504D48" d="M183,343.3c-0.7,0.1-1.4,0.2-2.2,0.4c-0.4-2.6-0.9-5.3-1.3-7.9c0-0.3-0.1-0.5-0.2-0.7
			c-0.1-0.2-0.2-0.3-0.4-0.5c-0.2-0.2-0.5-0.3-0.8-0.3c-0.4,0-0.8,0-1.3,0.1c-1.3,0.2-2.1,0.5-2.5,0.8c-0.3,0.3-0.5,0.8-0.4,1.5
			c0.4,2.7,0.8,5.3,1.2,8c-0.7,0.1-1.4,0.2-2.2,0.3c-0.8-5.3-1.6-10.6-2.3-16c0.7-0.1,1.4-0.2,2.1-0.3c0.3,2.1,0.6,4.2,1,6.3
			c0.1-1.1,1.2-1.8,3.5-2.2c1.5-0.2,2.6-0.2,3.2,0.3c0.6,0.4,1.1,1.2,1.3,2.2C182.1,337.9,182.5,340.6,183,343.3z"/>
	</g>
</g>
<g>
	<g>
		<path fill="#504D48" d="M77.1,28.5c-1.4,3.3-2.7,6.5-3.9,9.8c0.4,2,0.8,4,1.2,6c-0.7,0.2-1.5,0.3-2.2,0.5c-0.4-2-0.9-3.9-1.3-5.9
			c-2.5-2.5-5-5-7.6-7.4c0.9-0.2,1.8-0.4,2.7-0.6c1.9,2,3.8,4,5.6,6c0.9-2.6,1.8-5.2,2.7-7.7C75.3,28.8,76.2,28.6,77.1,28.5z"/>
		<path fill="#504D48" d="M90.7,33.9c0.2,1.3,0.3,2.6,0.5,3.8c0.1,0.7,0.1,1.3,0,1.8c-0.1,0.5-0.3,0.9-0.5,1.2
			c-0.2,0.3-0.6,0.5-1,0.8c-0.5,0.2-0.9,0.4-1.3,0.5c-0.4,0.1-1,0.2-1.7,0.3c-0.9,0.1-1.6,0.2-2.2,0.3c-0.5,0-1.1,0-1.6-0.2
			c-0.6-0.1-1-0.5-1.3-0.9c-0.3-0.5-0.5-1.1-0.7-2c-0.2-1.3-0.5-2.5-0.7-3.8c-0.1-0.7-0.1-1.4-0.1-1.9c0.1-0.5,0.2-1,0.5-1.3
			c0.2-0.3,0.6-0.6,1.1-0.8c0.5-0.2,1-0.4,1.4-0.5c0.4-0.1,1-0.2,1.8-0.3c0.8-0.1,1.4-0.2,1.8-0.2c0.4,0,0.9,0,1.5,0.1
			c0.5,0.1,1,0.2,1.3,0.5c0.3,0.2,0.6,0.6,0.8,1.1C90.4,32.6,90.6,33.2,90.7,33.9z M89.1,38.4c-0.2-1.5-0.4-3-0.6-4.5
			c-0.1-1-0.5-1.6-0.9-1.8c-0.5-0.2-1.3-0.2-2.5,0c-1.2,0.2-2,0.5-2.4,0.8c-0.4,0.3-0.5,1-0.3,2c0.3,1.5,0.5,3,0.8,4.5
			c0.1,0.5,0.2,0.9,0.4,1.1c0.2,0.3,0.4,0.4,0.7,0.5c0.3,0.1,0.6,0.1,0.9,0.1c0.3,0,0.8-0.1,1.4-0.2c0.6-0.1,1.1-0.2,1.4-0.3
			c0.3-0.1,0.6-0.2,0.9-0.4c0.3-0.2,0.4-0.4,0.5-0.7C89.2,39.3,89.2,38.9,89.1,38.4z"/>
		<path fill="#504D48" d="M104.6,39.9c-0.7,0.1-1.4,0.1-2.1,0.2c0-0.5-0.1-0.9-0.1-1.4c-0.1,1.1-1.3,1.7-3.5,1.9
			c-1.5,0.2-2.5,0-3.1-0.4c-0.6-0.5-1-1.2-1.1-2.3c-0.3-2.7-0.7-5.4-1-8.1c0.7-0.1,1.4-0.2,2.2-0.3c0.3,2.7,0.6,5.3,0.9,8
			c0,0.3,0.1,0.5,0.1,0.7c0.1,0.2,0.2,0.4,0.4,0.5c0.2,0.2,0.4,0.3,0.8,0.4c0.4,0.1,0.8,0.1,1.3,0c1.2-0.1,2-0.3,2.4-0.6
			c0.4-0.3,0.6-0.7,0.6-1.2c-0.3-2.8-0.5-5.6-0.8-8.4c0.7-0.1,1.5-0.1,2.2-0.2C104,32.5,104.3,36.2,104.6,39.9z"/>
		<path fill="#504D48" d="M113.8,29.7c-0.4,0-0.8,0-1.2,0.1c-1,0-1.7,0.2-2.2,0.5c-0.5,0.3-0.7,0.7-0.6,1.4c0.2,2.6,0.3,5.2,0.5,7.8
			c-0.7,0-1.4,0.1-2.1,0.1c-0.3-3.7-0.5-7.4-0.8-11.1c0.7,0,1.4-0.1,2.1-0.1c0,0.6,0.1,1.2,0.1,1.8c0-0.5,0.3-1,1-1.5
			c0.7-0.5,1.4-0.7,2.1-0.7c0.4,0,0.7,0,1.1,0C113.8,28.5,113.8,29.1,113.8,29.7z"/>
		<path fill="#504D48" d="M128.6,29.2c-1.3,0-2.6,0-3.9,0c0,3.3,0,6.5,0,9.8c-0.7,0-1.4,0-2.1,0c0-3.3-0.1-6.5-0.1-9.8
			c-0.9,0-1.8,0-2.7,0c0-0.5,0-0.9,0-1.4c0.9,0,1.8,0,2.7,0c0-0.6,0-1.2,0-1.8c0-1.3,0.4-2.1,1.1-2.7c0.8-0.5,1.9-0.8,3.3-0.8
			c0.6,0,1.3,0,2,0.1c0,0.5,0,0.9,0,1.4c-0.6-0.1-1.2-0.1-1.9-0.1c-0.8,0-1.4,0.1-1.7,0.4c-0.4,0.3-0.5,0.8-0.5,1.5
			c0,0.6,0,1.3,0,1.9c1.3,0,2.6,0,3.9,0C128.7,28.3,128.7,28.8,128.6,29.2z"/>
		<path fill="#504D48" d="M140.2,39.5c-0.7,0-1.4-0.1-2.1-0.1c0-0.5,0-0.9,0.1-1.4c-0.3,1-1.5,1.5-3.8,1.4c-1.5-0.1-2.5-0.3-3-0.9
			c-0.5-0.5-0.8-1.4-0.8-2.4c0.1-2.7,0.1-5.5,0.2-8.2c0.7,0,1.5,0,2.2,0.1c-0.1,2.7-0.2,5.4-0.2,8.1c0,0.3,0,0.5,0,0.7
			c0,0.2,0.1,0.4,0.3,0.6c0.1,0.2,0.4,0.4,0.7,0.5c0.3,0.1,0.8,0.2,1.3,0.2c1.2,0,2,0,2.4-0.2c0.5-0.2,0.7-0.6,0.7-1.1
			c0.1-2.8,0.3-5.6,0.4-8.4c0.7,0,1.5,0.1,2.2,0.1C140.6,32,140.4,35.8,140.2,39.5z"/>
		<path fill="#504D48" d="M150.9,40.4c-0.8,0-1.5,0-2.4,0c-1.4-0.1-2.4-0.5-2.9-1c-0.5-0.5-0.7-1.5-0.6-2.8c0.2-2.2,0.3-4.4,0.5-6.5
			c-0.9-0.1-1.7-0.1-2.6-0.2c0-0.5,0.1-0.9,0.1-1.4c0.9,0.1,1.7,0.1,2.6,0.2c0.1-1.1,0.2-2.3,0.3-3.4c0.7,0.1,1.5,0.1,2.2,0.2
			c-0.1,1.1-0.2,2.3-0.3,3.4c1.4,0.1,2.8,0.3,4.2,0.4c0,0.5-0.1,0.9-0.1,1.4c-1.4-0.1-2.8-0.3-4.2-0.4c-0.2,2.2-0.4,4.4-0.6,6.6
			c-0.1,0.8,0,1.3,0.3,1.6c0.3,0.3,0.9,0.5,1.8,0.6c0.2,0,0.8,0,1.7,0C151,39.5,150.9,39.9,150.9,40.4z"/>
		<path fill="#504D48" d="M162.8,41.9c-0.7-0.1-1.4-0.2-2.1-0.3c0.1-0.4,0.1-0.9,0.2-1.3c-0.4,1-1.7,1.4-3.9,1.1
			c-1.5-0.2-2.5-0.6-3-1.2c-0.5-0.6-0.7-1.4-0.6-2.5c0.3-2.7,0.6-5.4,0.9-8.1c0.7,0.1,1.4,0.2,2.2,0.3c-0.3,2.7-0.6,5.3-1,8
			c0,0.3,0,0.5,0,0.7c0,0.2,0.1,0.4,0.2,0.6c0.1,0.2,0.4,0.4,0.7,0.5c0.3,0.1,0.8,0.2,1.3,0.3c1.2,0.2,2,0.2,2.5,0
			c0.5-0.1,0.8-0.5,0.8-1.1c0.4-2.8,0.8-5.6,1.2-8.3c0.7,0.1,1.4,0.2,2.2,0.3C163.9,34.5,163.3,38.2,162.8,41.9z"/>
		<path fill="#504D48" d="M174.2,34.1c-0.4-0.1-0.8-0.2-1.2-0.2c-1-0.2-1.7-0.2-2.2,0c-0.5,0.2-0.8,0.6-0.9,1.2
			c-0.5,2.6-0.9,5.2-1.4,7.7c-0.7-0.1-1.4-0.2-2.1-0.4c0.6-3.7,1.2-7.3,1.8-11c0.7,0.1,1.4,0.2,2,0.3c-0.1,0.6-0.2,1.2-0.3,1.8
			c0.1-0.5,0.5-0.9,1.3-1.2c0.8-0.3,1.5-0.4,2.2-0.2c0.4,0.1,0.7,0.1,1.1,0.2C174.4,32.9,174.3,33.5,174.2,34.1z"/>
		<path fill="#504D48" d="M184.7,40.9c-2.5-0.6-5-1.2-7.6-1.7c-0.1,0.5-0.2,1.1-0.3,1.6c-0.2,0.8,0,1.4,0.5,1.8
			c0.5,0.4,1.3,0.8,2.4,1c1.1,0.2,2.3,0.3,3.9,0.3c-0.1,0.5-0.2,1-0.4,1.5c-1.4,0-2.8-0.2-4.1-0.5c-3.4-0.7-4.8-2.2-4.4-4.4
			c0.3-1.4,0.6-2.9,0.9-4.3c0.3-1.3,0.9-2.2,1.8-2.6c0.9-0.4,2.3-0.4,4.1,0c1.7,0.4,2.8,0.9,3.5,1.7c0.6,0.7,0.8,1.8,0.5,3.2
			C185.1,39.3,184.9,40.1,184.7,40.9z M182.9,39.1c0.1-0.6,0.3-1.1,0.4-1.7c0.2-0.7,0-1.2-0.3-1.5c-0.4-0.3-1.1-0.6-2.1-0.8
			c-1-0.2-1.7-0.2-2.2-0.1c-0.5,0.1-0.8,0.6-1,1.2c-0.1,0.6-0.2,1.1-0.4,1.7C179.2,38.3,181.1,38.7,182.9,39.1z"/>
	</g>
</g>
<path fill="#FFFFFF" d="M88.7,212.9c0,0-1.3,0.4-0.8,1.5c0.5,1.1,1.1,6.6,0.8,9c0,0,1.5-6,1.2-7.6c-0.2-1.6,2.7-1.5,6.2-0.2
	C96.2,215.7,91.1,212.8,88.7,212.9z"/>
<path fill="#FFFFFF" d="M105.2,216.6c0,0-1.2,0.4-1.5,2c-0.2,1.6-0.3,7-0.3,7s1.3-8.3,4.8-8.6C108.2,217,107.9,216.1,105.2,216.6z"
	/>
<path fill="#FFFFFF" d="M120.8,217.4c0,0,10.3-3.4,10.6-2.9c0.3,0.5-2,7.9-1,9.4c0,0-1.7-3.2-0.9-5.7c0.8-2.6-1.9-1.9-2.4-1.8
	C126.1,216.6,120.8,217.4,120.8,217.4z"/>
<path fill="#B1CBEA" d="M93,182.6l-3.8,3.5l1.2,0.4c0,0-2.5,6.4-0.8,11.5c0,0,0.4-6.6,1.8-8.8c0,0-0.3,3.3,0,4.6c0,0,0.6-2.1,2.6-3
	v1.5c0,0,6-2.7,7.8-4.9c0,0-4.9,2.4-6.2,2.4l0.5-2.7l-2.2,1.7l0.2-3.5l-1.3,0.7L93,182.6z"/>
<path fill="#B1CBEA" d="M102.3,189.2c0,0-4.6,4.4-3.9,8.8c0,0,3.7-3.6,3.9-5.4l-2,1L102.3,189.2z"/>
<path fill="#B1CBEA" d="M109.3,190.3c0,0,4.4,5.6,4.2,10.9c0,0,0.7-3.9,0-6.9c0,0,2.1,0.9,2.8,2.8c0,0,0-2.2-0.4-3.2
	c0,0,1.7,0.7,2.2,1.8c0,0-1.3-4.1-3.5-5.8c0,0,0.5,2.5,0.5,3.7l-2.1-2.3l0.1,1.7C113,192.9,111.2,191.5,109.3,190.3z"/>
<path fill="#B1CBEA" d="M105.8,191.7c0,0-0.8,3.3,0.8,7.5C106.7,199.2,107.8,195.2,105.8,191.7z"/>
<path fill="#B1CBEA" d="M120.9,188.9c0,0,0.1,3.1,2.6,4.7l-0.7-2.4l1.2,0.9v-1.7c0,0,1.6,1.5,2.7,3.7c0,0-1-4.3-3-5.7
	c0,0-0.5,1.1-0.5,1.9l-1.2-0.7v0.9L120.9,188.9z"/>
<g>
	<path fill="#504D48" d="M239,338l-9.1-29.1l8.7-25.3l-3.3-0.6c-0.6-0.1-14.9-2.9-26.5-2.9c-7.7,0-12.4,1.2-14.8,3.8
		c-1.7,1.8-2.5,4-2.2,6.4c0,0.4,0.2,0.7,0.2,1.1v1.4L177.2,307c-18,3.6-36.3,5.4-54.8,5.4c-18.3,0-36.7-1.8-54.5-5.4L53,292.9v-1.6
		c1-0.3,0.4-0.7,0.4-1c0.3-2.4-0.3-4.6-2-6.4c-2.4-2.6-7.1-3.7-14.8-3.7c-11.6,0-25.9,2.8-26.5,2.9l-3.3,0.6l8.7,25.3L6.4,338
		l4.9-1.1c0.1,0,6.1-1.3,13.3-1.6c-2,3.7-4.1,6.6-5.6,8.4c-1.7,2.1-2,4.9-0.9,7.4c1,2.3,3.2,4.1,5.8,4.9c32,9.8,65.1,14.7,98.5,14.7
		c33.4,0,66.6-4.9,98.5-14.7c2.6-0.8,4.6-2.5,5.7-4.7c1.1-2.4,0.9-5.1-0.6-7.3c-1.3-1.8-3.3-4.8-5.2-8.7c7.1,0.3,13.2,1.6,13.3,1.6
		L239,338z M27.3,329.5c-4.7,0-9.2,0.5-12.3,0.9l6.7-21.6l-3.8-11C21.9,295,28,294,28,294c-4.4-0.2-8.4,0.7-10.9,1.5l-2.5-7.4
		c4.9-0.8,14.3-2.2,22.1-2.2c8.1,0,10.2,1.5,10.6,1.9c0.6,0.6,0.6,1.1,0.6,1.6c-0.4,3-5.9,7.4-9.6,9.7c0,0-3.3,2-3.9,2.5
		c-2.1,1.5-3.3,3.9-3.2,6.4c0.2,6.3-0.6,12.3-2.3,17.7c-0.4,1.3-0.9,2.6-1.4,3.8C27.4,329.5,27.3,329.5,27.3,329.5z M221.4,348.8
		c-0.3,0.7-1.2,1.4-2.1,1.7c-31.4,9.6-64,14.5-96.8,14.5c-9.2,0-18.4-0.4-27.6-1.2l-0.9-7.7l-2.2,7.4c-22.4-2.1-44.5-6.4-66-13
		c-1-0.3-1.8-1-2.1-1.7c-0.2-0.4-0.3-0.9,0.1-1.4c2.8-3.5,8-10.8,10.8-20c1.9-6,2.7-12.6,2.5-19.6c0-0.6,0.3-1.2,0.8-1.5
		c0.4-0.3,0.8-0.4,1.3-0.4c0.2,0,0.8,0,1,0.1c9.1,2.8,18,5.1,28,6.9v6.9l2-6.4c17.4,3.3,34.8,4.9,52.6,4.9c12.8,0,25.5-0.9,38.2-2.6
		l-0.1,0l2.2,8.9l0.9-8.9l3.2,4.1l1.2-5.2c12.5-2,24.9-4.9,37.1-8.6c0.6-0.2,1.4-0.1,1.9,0.3c0.5,0.3,0.8,0.9,0.8,1.5
		c0.2,6.6,1.3,13.2,3.2,19.5c3,9.5,7.6,16.8,10,20.3C221.7,347.9,221.6,348.5,221.4,348.8z M218.3,329.5c-0.5-1.3-1-2.6-1.4-4.1
		c-1.8-5.8-2.8-11.8-3-17.9c0-1.8-0.7-3.5-1.9-4.8c0,0,0-0.1-0.1-0.1c0,0,0,0,0,0c-0.1-0.1-0.2-0.3-0.4-0.4
		c-0.3-0.3-4.2-3.1-4.2-3.1c-3.8-2.2-9.2-6.7-9.6-9.7c-0.1-0.4,0-0.9,0.6-1.6c0.4-0.4,2-1.6,7.8-1.9l0.6,2.8l0.8-2.8
		c0.5,0,0.7,0,1.2,0c2.8,0,6.5,0.2,8.5,0.4v7.6l2.1-7.4c4.5,0.5,8.9,1.1,11.6,1.6l-7,20.7l6.8,21.6C227.3,330,223,329.5,218.3,329.5
		z"/>
	<path fill="#504D48" d="M203.9,310.4c-1,0.3-3.4,1.2-5.6,2c3.9,7.6,10.2,28.4,9.4,37.6l7.8-2.1c0,0,4-1.5,1.9-4
		c-2.1-2.5-10.7-19-11.6-30.1C205.6,313.8,206,309.8,203.9,310.4z"/>
	<path fill="#504D48" d="M42,312.3c-2.1-0.7-1.7,3.3-1.7,3.3c-0.9,11.1-9.5,27.5-11.6,30.1c-2.1,2.5,1.9,4,1.9,4l7.8,2.1
		c-0.6-6.6,2.6-22.9,10.8-37.1C46.4,313.8,43.2,312.7,42,312.3z"/>
</g>
<g>
	<path fill="#504D48" d="M43.9,24.6l0.5,10.3l-4.7-8.4l6.7,32.9c0,0-10.6-19.7-9.5-31.8l-7.8,2.1c0,0-4,1.5-1.9,4
		c2.1,2.5,10.7,19,11.6,30.1c0,0-0.4,4,1.7,3.3c2.1-0.7,10.8-3.9,10.8-3.9l-4.2-14.8L51.6,59L43.9,24.6z"/>
	<path fill="#504D48" d="M216,31.9c2.1-2.5-1.9-4-1.9-4l-7.8-2.1c1.1,12.2-9.5,31.8-9.5,31.8l6.7-32.9l-4.7,8.4l0.5-10.3l-7.6,34.4
		l4.2-10.5l-4.2,14.8c0,0,8.7,3.2,10.8,3.9c2.1,0.7,1.7-3.3,1.7-3.3C205.3,50.8,213.9,34.4,216,31.9z"/>
	<path fill="#504D48" d="M239,40l-4.9,1.1c-0.1,0-4.4,0.9-10.1,1.4c2.2-3.2,4.4-5.5,5.6-6.8c1.9-2,2.4-4.8,1.4-7.4
		c-0.9-2.4-3-4.4-5.6-5.4C192.7,10.1,158.2,3.7,123,3.7c-35.2,0-69.7,6.5-102.5,19.2c-2.5,1-4.6,2.9-5.5,5.2c-1,2.5-0.6,5.3,1.1,7.3
		c1.3,1.5,3.2,3.9,5.2,7c-5.7-0.5-10-1.4-10.1-1.4L6.4,40l9.1,29.1L6.9,94.4l3.3,0.6C10.8,95.2,25,98,36.6,98h0
		c7.7,0,12.4-1.2,14.8-3.8c1.7-1.8,2.5-4,2.1-6.4c-0.2-1.6-0.4-2.4-0.5-2.8C55,82.6,72.3,62,123.1,62c54,0,68.8,27.2,68.8,27.2
		c0,1.9,0.7,3.6,2.1,5.1c2.4,2.6,7.1,3.8,14.8,3.8c11.6,0,25.9-2.8,26.5-2.9l3.3-0.6l-8.7-25.3L239,40z M47.3,90.1
		c-0.4,0.5-2.5,1.9-10.6,1.9c0,0,0,0,0,0c-7.8,0-17.2-0.9-22.1-1.8l2.2-6.2h7.4l-6.6-2.8l4-11.9l-6.7-21.6c2.6,0.4,6.1,0.7,9.9,0.8
		c0.7,1.5,1.4,3,2.1,4.7c2.2,5.7,3.6,11.4,4.3,17.6c0.2,2.4,1.7,4.6,3.9,5.9c0.4,0.2,3.2,2.3,3.2,2.3c3.8,2.2,9.2,6.7,9.6,9.7
		C47.9,89,47.9,89.5,47.3,90.1z M123,56.1c-10.7,0-21.4,0.8-31.9,2.2l-1.1-11l-0.7,7.8l-2-4.9l0.8,8.6C72.9,61.1,57.9,65,43.3,70.4
		c-1.5-0.2-3.1-0.5-4.5-1c-0.2,0.8-0.5,1.6-0.7,2.3c-0.1,0-0.2-0.1-0.3-0.1c-0.5-0.3-0.9-0.8-0.9-1.4c-0.7-6.6-2.2-13.1-4.6-19.2
		c-3.7-9.3-8.9-16.2-11.7-19.4c-0.4-0.5-0.3-1-0.1-1.3c0.3-0.8,1.2-1.6,2.2-2c12.9-5,26.2-9.1,39.6-12.1l1.1,6.6l2-7.2
		c18.9-4,38.2-6,57.7-6c14.3,0,28.6,1.1,42.6,3.3L164.1,28l3.2-14.9c19.1,3.1,37.8,8.2,56,15.3c1,0.4,1.9,1.2,2.2,2
		c0.1,0.4,0.2,0.9-0.2,1.3c-3.1,3.3-8.9,10.1-12.5,19.1c-2.3,5.9-3.6,12.2-3.9,19.4c0,0.7-0.5,1.2-0.9,1.4c-0.6,0.3-1.3,0.4-2,0.1
		C179.5,61.3,151.5,56.1,123,56.1z M230.9,89.9c-3,0.5-7.3,1.2-12.3,1.7L217,78.9v12.9c-3,0.2-5.4,0.3-7.8,0.3c-0.1,0-0.3,0-0.4,0
		l-1.2-8.8l-1,8.8c-6.3-0.2-8-1.5-8.4-1.9c-0.6-0.6-0.7-1.1-0.6-1.6c0.4-3,5.9-7.4,9.6-9.7l2-1.2l-0.1-0.3c0.1-0.1,0.2-0.1,0.3-0.2
		c0.6-0.2,1.1-0.4,1.6-0.7c2.2-1.3,3.6-3.6,3.7-6.1c0.3-6.5,1.5-12.2,3.5-17.5c0.6-1.5,1.3-3,2-4.4c3.9-0.1,7.5-0.5,10.2-0.9
		l-6.7,21.6L230.9,89.9z"/>
</g>
</svg>
