<?xml version="1.0" encoding="utf-8"?>
<!-- Generator: Adobe Illustrator 18.1.1, SVG Export Plug-In . SVG Version: 6.00 Build 0)  -->
<svg version="1.1" xmlns="http://www.w3.org/2000/svg" xmlns:xlink="http://www.w3.org/1999/xlink" x="0px" y="0px"
	 viewBox="0 0 275 501.5" enable-background="new 0 0 275 501.5" xml:space="preserve">
<g id="Background">
</g>
<g id="Objects">
	<g>
		<g>
			<path fill="#FFDCB8" d="M83.2,185.6c0,0,11.4,0.5,13.9-1.8c2.5-2.3,1-6.8-2.9-6.2c-3.9,0.5-8-0.6-7.9-3.8
				c0.1-3.2,5.5-12.4,1-15.3c-5.6-3.5-6.6,8.6-8.4,10.4c-1.8,1.7-1.7,0.6-2.9-5.1c-1.2-5.7-1.6-7.7-6-7.5c-4.4,0.2-3.7,6.8-2.5,11
				c1.3,4.2,1,5.1-0.7,5c-1.7-0.1-3.2-11.3-9.3-8.9c-6,2.4,0.2,9.3,2.9,15c2.7,5.7,3.6,11,5,12.1C66.9,191.7,80.9,187.6,83.2,185.6z
				"/>
			<path fill="#444444" d="M153.1,210c-8.1,0.8-28.3,26.9-47.7,19.5s-16.2-44.1-16.2-44.1s-16.5-4.6-26.3,4.2
				c0,0,6.7,48.9,38.3,52.6c31.6,3.7,52.3-17,54.9-22.8C158.8,213.6,159.9,209.3,153.1,210z"/>
		</g>
		<g>
			<path fill="#2D1E0D" d="M65.9,346.6c0,0-7.7,3.9-15.3,4.5s-15.3,2.5-14,7.1c1.2,4.6,22,7.8,38.8,2.9c0,0,10.4,3.1,12.3-1.1
				c1.9-4.2-2.9-13.3-2.9-13.3L65.9,346.6z"/>
			<path fill="#444444" d="M114,290.8c0,0-37.4-30.2-55.4,2.4s6.3,54.5,6.3,54.5s12.2,3.1,19.9-1c0,0-22.7-23.4-7.4-45.2
				s42,6.2,62.3,13.9s33.3,12.8,33.3,12.8s27.7,69.5-30.4,127.5c0,0,13.5,15.5,32,5.7c0,0,37.9-69,18.6-138.4
				C186,297.3,114,290.8,114,290.8z"/>
			<path fill="#2D1E0D" d="M167.8,458.9c3.4,3.7,6.2,13.3,10,17.3c5.5,2.6,19,2.5,19.8,6.2c0.7,3.8,2,7.5,2,7.5s-37.4,2.6-42.8-1
				c0,0-14.6-18.1-16.3-25.5c0,0,2.5-7.1,6.7-9.2C151.3,452.3,164.2,455,167.8,458.9z"/>
		</g>
		<g>
			<path fill="#FFDCB8" d="M191.4,184.1c0,0-3.1,23.4-2,27.8c0,0-12.8,2.2-17.2-1.4c0,0-0.6-17.4-1.2-27.5
				C170.3,173,183.9,176.4,191.4,184.1z"/>
			<path fill="#FFDCB8" d="M208,134.8C208,134.8,208,134.8,208,134.8c8.1-6.9,2.3-8.9,0.4-8.1c-1,0.4-4.2,2.9-5,1.8c0,0,0,0,0,0
				c-2.8-3.5-5.8-6.8-8.7-9.8l0,0v0c-9.7-9.9-18.8-16.3-18.8-16.3s-13,4.1-18.7,26.8c-5.6,22.7-4.7,37.5,13.9,49.5
				c18.6,12,41.1,0.9,41.1,0.9C221.8,170.5,217,148.4,208,134.8z"/>
			
				<ellipse transform="matrix(0.999 -4.392609e-002 4.392609e-002 0.999 -6.7216 9.164)" fill="#7F6036" cx="205.2" cy="157.5" rx="10.1" ry="12.9"/>
			
				<ellipse transform="matrix(0.7257 -0.688 0.688 0.7257 -38.526 164.1965)" fill="#140F0A" cx="186.7" cy="130.4" rx="2.9" ry="4.5"/>
			<path fill="#42321F" d="M186.2,84.7c6.3,8.6,5.5,31.7-2.9,19.4c0,0-5.7,21.1-10.8,20.2c-5.1-0.9-4.1-7.2-4.1-7.2s-1,20.9-8,34.5
				l2.8,12.5c0,0,18.9,20.7,14.9,29.7c0,0-2.4,2-7.2-5.4c0,0,2.8,6.5-1.5,8c-4.4,1.5-13.1-2.6-15.8-7.8c0,0,0.5,4.4-2.3,5.2
				c-2.8,0.8-17-5.6-25.4-17.2s-10-17.9-10-17.9s-11,8.7-14.5,1.6s6.4-6,6.4-6s-9.4-6-7.8-12.5c1.6-6.5,7.6-0.3,7.6-0.3
				s5.5-33.2,28.8-43.3c0,0-9.7,2.2-10.5-2c-0.8-4.3,23.1-13.3,29.5-11.4c0,0-4.2-4.7-2.6-10.4C154.2,68.7,179.5,75.6,186.2,84.7z"
				/>
			<path fill="#DDB69D" d="M157.5,164.4c-2.4-5.3-1.3-14.3,5.2-18.1c6.5-3.8,4.7,5.7,4.7,12.4c0,6.6,12.3,7,7.5,12.3
				C170,176.2,160.3,170.6,157.5,164.4z"/>
			<path fill="#FFDCB8" d="M158.5,163.7c-2.1-4.6-1.1-12.5,4.6-15.9c5.7-3.4,4.1,5,4.1,10.8c0,5.8,10.8,6.2,6.6,10.8
				C169.5,174.1,161,169.2,158.5,163.7z"/>
			<path fill="#332210" d="M180.9,118c0,0-6.6,8.8-1.9,16.9C179,134.9,171.4,123.3,180.9,118z"/>
		</g>
		<g>
			<path fill="#280F09" d="M178.1,226.9c0,0,9.1,15.1,20.6,21.1c11.6,6,24.3,34.8,24.3,34.8l-4.9,11.8l-10.1-8.9
				c0,0-0.2-12.8-10.2-18.7C187.8,261,175.7,236.2,178.1,226.9z"/>
			<path fill="#E5F5F9" d="M165.9,209.4l2-5.8c0,0,15.6-5,24.3-1.1l3,5.6C195.2,208.1,177.1,205.6,165.9,209.4z"/>
			<path fill="#444444" d="M153.1,210c0,0,32.4-2.6,47.5-8.9c0,0,11.3,78.4-0.3,125.9c0,0-68.2-10.8-88.9-39.3
				C111.5,287.7,155.2,268.2,153.1,210z"/>
			<path fill="#6D6D6D" d="M160.4,209.3c0,0,23.3-10.4,34.2-6.1C194.5,203.2,173.5,210.2,160.4,209.3z"/>
			<path fill="#232728" d="M124.2,299.7c0,0,16.4,8.1,21.4,9.9l3.9-4.8l2.6,7.3c0,0,13.4,6.7,22.7,9.1c0,0-23.2-6.1-25.7-7.4
				l-0.4-3.8l-2.7,2.7C145.9,312.7,127,301.9,124.2,299.7z"/>
		</g>
		<g>
			<path fill="#FFDCB8" d="M200.9,68.9c0,0-21,0.2-23.9-5.5c-1.9-3.8,3.4-5,9.8-3.5c6,1.4,6.5-4.6,6.3-10.2s-0.8-9.8-4.8-13.8
				c-5-5,0.5-11.7,5.2-7.4s7.3,10,8.1,16.2c1.1-0.2,1.1-2.2,1.6-5.6c0.4-3.4-0.4-5-2.4-9.9c-1.9-4.7,4.7-7.7,7.8-3s3,12.9,2.8,17.3
				c1.1,0.2,3.8-9.1,4.8-13.3c0.9-4.2,7.4-4.7,6.7,4.9c-0.7,9.6-4.1,15.1-4.5,19.2C217.9,58.5,211.1,67.4,200.9,68.9z"/>
			<path fill="#444444" d="M192.3,205.2c0,0,28.1-8.9,39.6-48.9c11.5-40-33.5-85.8-33.5-85.8s13.3-18.6,23.9-14.4
				c0,0,77,105.3-19.8,160.7C202.5,216.9,191.5,218.3,192.3,205.2z"/>
		</g>
	</g>
</g>
</svg>
