<?xml version="1.0" encoding="utf-8"?>
<!-- Generator: Adobe Illustrator 18.1.1, SVG Export Plug-In . SVG Version: 6.00 Build 0)  -->
<svg version="1.1" xmlns="http://www.w3.org/2000/svg" xmlns:xlink="http://www.w3.org/1999/xlink" x="0px" y="0px"
	 viewBox="0 0 318 739.5" enable-background="new 0 0 318 739.5" xml:space="preserve">
<g id="Background">
</g>
<g id="Objects">
	<g>
		<path fill="#C9F2FF" d="M18.2,224.5c0,0-3.4,7.1-4.4,16.4c0,0,0.4,3.4,8.9,6.3c9.6,1.3,27.7,0.2,27.7,0.2v-4.2
			c0,0-16.3-0.1-20.2-3c-0.6-1.9,0-5.2,1.6-8.1L18.2,224.5z"/>
		<path fill="#0C0C0C" d="M24.3,222c0,0,7.8-23.9,8.2-26.5c0,0,7.8-1,13.3,4.1c0,0-11.4,22.9-13.9,26.1
			C32,225.7,28.4,223.1,24.3,222z"/>
		<path fill="#2D2D2D" d="M16.5,226.1c0,0,1.5-5.4,5-7.1c1-0.5,12.6,6.1,14.2,8.5c0,0-2.8,7.1-3.9,7.4
			C31.7,234.9,17.2,228,16.5,226.1z"/>
	</g>
	<g>
		<path fill="#FFEA80" d="M99.3,253.1c0,0-8.5,16.6-9.2,17.7s10.2,0,10.2,0s-4.1,16.7-4.6,19.8c0,0,7-4.7,11-6.3
			c0,0,9.3,34,13.4,40.7c0,0,23.7-42,22.7-45.1c0,0,5,1.8,7.1,2.3c2.1,0.5-6.8-17.2-6.8-17.2s8.9,0.5,12,0l-8.7-15.1
			C146.4,250,108.1,251.6,99.3,253.1z"/>
		<path fill="#B2490D" d="M142.1,146.2c-4.9-8.3-12-11.1-22.7-9.6c-7.4,1-12.5,6.7-15.9,15C113.5,153.4,127.7,153.7,142.1,146.2z"/>
		<path fill="#C0BAB3" d="M142.1,146.2c-14.4,7.6-28.7,7.2-38.6,5.4c-11.9,29-3.2,89.4-3.2,89.4c38.3,5.6,54.8-5.6,54.8-5.6
			C152.5,187.8,150.2,159.7,142.1,146.2z"/>
		<path fill="#52858B" d="M100.3,237.2l-2.1,2.8c0,0,0.8,12.5,0.9,13.6c0,0,40.8,8.8,60.1-5.6c0,0-0.8-12.4-2.6-13.7
			c-1.8-1.3-1.8-1.3-1.8-1.3S133,242.1,100.3,237.2z"/>
		<path fill="#C95E15" d="M97.9,224.5c0,0,23.9,4.7,57.1-4l0-9.9c0,0-19.4,6.2-57.1,3.8V224.5z"/>
	</g>
	<path fill="#BECFE5" d="M170.6,437.5c-18.4-3.8-30.6-25.2-15.5-35.5c0,0-30.8-5-16.7-35.1c0,0-20.2-10.6-4.1-26.3
		c0,0-22.1-28.2,0.8-43.6c0,0,8.7-13.3,25.4,19c0,0,56.3-25,26.2,42.6c16.2-6.6,18.4,13.2,8.8,19.1c25.7,3.7,29,36.7,5.7,48.8
		c7.5,4.8,9.2,28.3-6.8,27.5c0,0,36.4,6.6,22.5,36.4c28.2-14.3,38.1,12.1,31.5,26.4c0,0,49.6,23.1-4.4,58.4
		c38.6,19.8,30.9,83.7-23.1,80.4c32,16.5,8.8,55.1-18.7,36.4c7.7,14.3-12.3,39.7-36.4,38.6c-24.2-1.1-33.4-28.6-35.4-39.7
		c-13,15.4-27.3-6.6-19.6-16.5c-21,7.7-35-28.6-12-40.8c-36.5,3.3-56-57.3,2.2-68.3c-20-18.7-8.2-57.7,30.5-49.2
		c-8.7-12.5,12.9-17.8,20.8-15.6c0,0-17.1-23.6,11.7-33.5C163.9,467,151,442.2,170.6,437.5z"/>
	<g>
		<path fill="#F0D61D" d="M133.7,272.1c0,0-12,23.4-12.9,24.9c-0.9,1.5,14.3,0,14.3,0s-5.8,23.5-6.5,27.9c0,0,9.8-6.6,15.5-8.8
			c0,0,22,49.9,27.8,59.5c0,0,24.6-61.3,23-65.7c0,0,7.1,2.5,10,3.3c2.9,0.7-9.5-24.2-9.5-24.2s12.5,0.7,16.9,0L200,267.7
			C200,267.7,146,270,133.7,272.1z"/>
		<path fill="#FFEB80" d="M144.5,271.3c0,0-8.1,15.7-8.7,16.7s9.6,0,9.6,0s-3.9,15.7-4.3,18.7c0,0,6.6-4.4,10.4-5.9
			c0,0,14.7,33.4,18.6,39.8c0,0,16.4-41,15.4-44c0,0,4.7,1.7,6.7,2.2c2,0.5-6.4-16.2-6.4-16.2s8.4,0.5,11.3,0l-8.2-14.2
			C189,268.4,152.8,269.9,144.5,271.3z"/>
		<path fill="#C9F2FF" d="M182.4,144.4c-17.1,9-34,8.6-45.8,6.4c-14.2,34.4-3.8,106.2-3.8,106.2c45.5,6.6,65-6.6,65-6.6
			C194.7,193.8,192,160.5,182.4,144.4z"/>
		<path fill="#71A3AC" d="M132.8,252.5l-2.5,3.4c0,0,1,14.8,1.1,16.2c0,0,48.5,10.5,71.3-6.6c0,0-0.9-14.7-3-16.3s-2.1-1.6-2.1-1.6
			S171.6,258.3,132.8,252.5z"/>
		<path fill="#C95E15" d="M130,237.4c0,0,28.4,5.6,67.8-4.7l0-11.8c0,0-23.1,7.4-67.8,4.5V237.4z"/>
		<path fill="#FFFFFF" d="M163.9,138.5c0,0,14.4-0.6,20.3,19.6c5.8,20.2,8.6,69.3,9.5,86.6l-6,1.7
			C187.6,246.4,186.6,140.1,163.9,138.5z"/>
	</g>
	<path fill="#C95E15" d="M182.4,144.4c-5.9-9.8-20.1-13.2-26.9-11.4c-8.6,2.2-14.8,8-18.9,17.8C148.4,153,165.3,153.4,182.4,144.4z"
		/>
	<g>
		<path fill="#464B4C" d="M83,158c5.8-1.4,21,10.6,10.8,54.9c-8.3,36-61.7,9-61.7,9s9.4-10.1,6.3-16c0,0,26.3,27.1,43.3,7.3
			c2.9-3.4,5.8-21.5,2.1-33.6C79.7,166.3,76.2,159.6,83,158z"/>
		<g>
			<path fill="#EABE96" d="M32.1,221.1c0,0,0.1,0.1,0.3,0.2c1.4,0.7,7.1,2.7,10.5-8.4C43,212.9,29.1,212.2,32.1,221.1z"/>
			<path fill="#EABE96" d="M46.8,203.9c-2.2-0.7-4.5-0.8-7.3,5.7c-2.8,6.5-0.8,7,2.5,5.2C45.3,213.1,49.7,204.9,46.8,203.9z"/>
			<path fill="#FFDCB8" d="M35.1,200.8c-6.4-1.9-13.9,1.3-1.9,7.6C45.2,214.5,49.6,205.1,35.1,200.8z"/>
			<path fill="#FFDCB8" d="M31.9,206.8c-3.7-1.1-7.4-1.7-8.5,1.3c-0.9,2.3,1.1,3.7,6.6,6.6c5.9,3,9.6,3.1,11.2,0.6
				C42.5,213.2,40,209.2,31.9,206.8z"/>
			<path fill="#FFDCB8" d="M29.6,213.7c-5.2-1.6-11.4,1.1-1.5,6.2c4.9,2.5,8.5,1.8,9.3,0.1C38.8,217,35.6,215.5,29.6,213.7z"/>
		</g>
	</g>
	<path fill="#725C2B" d="M157.3,114.5c0,0,2.1,6.9,0,8.5s-7.6-3-8.7-4.8c0,0,1.4,5.2-1.1,5.1c-2.5-0.1-6.6-8.9-6.6-8.9
		S146.2,105.2,157.3,114.5z"/>
	<path fill="#FFDCB8" d="M89.1,43.7c0,0-14.3,38-18.7,49s-7.2,31.4,9.4,36.4c16.5,5,46.1,6.6,56.2-4.4s12.1-20.4,12.1-20.4
		s16.5-39.1,5.5-54.5C142.5,34.4,97.3,27.2,89.1,43.7z"/>
	<path fill="#CB8F5E" d="M94,63.9c0,0-2.6,5.1-4.4,5.1s-9.2,1.8-3.7,5.9c5.5,4,10.7,1.8,10.7,1.8s-9.7-1.8-9.9-4.4
		c-0.2-2.6,3.7-0.1,5.5-1.7S94,63.9,94,63.9z"/>
	
		<ellipse transform="matrix(0.9576 0.2881 -0.2881 0.9576 23.324 -30.2544)" fill="#190F08" cx="114.5" cy="64.1" rx="2.3" ry="4.2"/>
	
		<ellipse transform="matrix(0.9576 0.2881 -0.2881 0.9576 21.7093 -22.9542)" fill="#190F08" cx="88.9" cy="62.3" rx="2.3" ry="4.2"/>
	<path fill="#725C2B" d="M96.6,42.9c0,0,7.1,9.6,10.1,9.4s0-5.8,0-5.8s8.5,7.4,14.6,8.5c6.1,1.1,0-6.1,0-6.1s5.2,2,7.4,0.1
		C130.9,47,108.3,36.6,96.6,42.9z"/>
	<g>
		<path fill="#753427" d="M76.9,88.4c0,0-1.9,28.1,13.2,32.5c0.2,0.1,0.4,0.1,0.6,0.1c4.4-19,26-22.5,35.5-23.1
			c1.6-2.7,2.5-4.5,2.5-4.5C107.2,79,76.9,88.4,76.9,88.4z"/>
		<path fill="#DA9089" d="M90.7,121c16.7,4.4,30.1-14.2,35.5-23.1C116.8,98.5,95.2,102,90.7,121z"/>
	</g>
	<path fill="#C9F2FF" d="M77.6,73.9c0,0,4-9.7,6.6-16.8c-1.2-0.7-2.3-1.3-3.3-1.9C79.2,60.8,78.1,67,77.6,73.9z"/>
	<path fill="#C5DDFF" d="M184.4,45.3c-1.5-3.6-3.5-7.1-6.1-10.3C155,6.1,95.9,4.1,80.9,55.2c1,0.6,2.1,1.3,3.3,1.9
		c1-2.7,1.8-5,2.1-6.2c0,0,22.6-14.9,56.2,3.9c0,0,3.5,4.2,4.3,13.5C159.3,65.2,172.2,58.3,184.4,45.3z"/>
	<path fill="#C9F2FF" d="M146.8,68.3c0.8,8.8-0.7,22.2-9.8,41c0,0,19.3,10.5,25.3,8.8c5.4-1.5,34.8-41.5,22.1-72.8
		C172.2,58.3,159.3,65.2,146.8,68.3z"/>
	<path fill="#75A4AC" d="M164.6,78.8c-0.3-0.1-0.6-0.1-0.8-0.2c3.3,1.6,4.5,7.8,2.7,14.4c-1.8,6.7-6,11.4-9.6,11.1
		c0.3,0.1,0.5,0.2,0.8,0.3c4.6,1.2,9.9-3.5,11.8-10.6C171.4,86.8,169.2,80,164.6,78.8z"/>
	<path fill="#A0CCD0" d="M166.5,93.1c1.8-6.7,0.6-12.9-2.7-14.4c-4.4-0.5-9.1,4.1-10.9,10.8c-1.8,6.7,0,13,4,14.8
		C160.5,104.5,164.7,99.7,166.5,93.1z"/>
	<path fill="#493918" d="M110.3,53.1c0,0,9,1,14.2,8.6C124.5,61.7,117.8,47.6,110.3,53.1z"/>
	<path fill="#493918" d="M97.3,53c0,0-3.5-1.8-11,4.9C86.3,57.9,91.7,47.3,97.3,53z"/>
	<g>
		<path fill="#382B19" d="M97.9,437.1c0,0-5.5,16.5-9.9,23.7c-4.4,7.2-1.7,18.7,5,19.3c6.6,0.6,28.7-31.2,30.9-35.3
			c2.2-4-10.4-11-10.4-11S101.7,434.9,97.9,437.1z"/>
		<path fill="#382B19" d="M120.2,433.8c0,0,2.1,12.7,2.7,23.1c0.6,10.5-1.3,25.9,6.7,28.7c8,2.8,11.2-1.7,11.2-1.7s9.9-37,8.9-42.2
			s-11.2-12.3-11.2-12.3L120.2,433.8z"/>
		<path fill="#464B4C" d="M48.3,268.5c0,0,8.8,110.7,45.7,170.8c0,0,16,9.4,26.2-8.8c0,0-12.2-25.3-23.6-67.8s-16.9-81.5-17.7-88.1
			L48.3,268.5z"/>
		<path fill="#464B4C" d="M52.6,274c0,0,11.2,20.4,17.7,30.9c6.6,10.5,33.8,119.5,46.6,135c0,0,14.8,5,32.5-7.7
			c0,0-32.3-70.3-39.2-150C110.3,282.1,69.1,266.2,52.6,274z"/>
		<path fill="#232728" d="M58,283.7c0,0,9.3,11.6,13.6,23.6c4.3,12,29.7,99.4,38.8,118.1c0,0-20.2-50.3-29.2-79.1S73,311.9,58,283.7
			z"/>
	</g>
	<path fill="#BECFE5" d="M273.1,516.1c0,0-10.6-8.4,0-13.3c0,0-13-14.5,0-20.7c13-6.2,17.9,10.9,17.9,10.9s3.3-7.3,11.4-2.4
		c8.2,4.9,4.9,15.8,0,19.3c0,0,9.9,6.2,5,14.6c-5,8.4-14.7,0-14.7,0C289.4,534.6,267.4,529.4,273.1,516.1z"/>
	<g>
		<path fill="#464B4C" d="M130.6,152.8c0,0,11,2.4,15.7,5.3c0,0-26.2,75.9-28.1,125.5c0,0-24.9-5.4-46.3-8.3
			c-0.2-1.1-0.4-1.7-1.6-1.8c-9.6-1.2-20.2-0.4-24.8,0.5c0,0,19.1-91.8,38.4-115.8c0,0,5.1-0.7,10.5-2.3S130.6,152.8,130.6,152.8z"
			/>
		<path fill="#676B6B" d="M97.7,154.7c0,0-11.8,10.1-20.8,9.7c0,0,3.4,9.7,10.5,15.8c0,0-15.1,6.9-17.1,8.3c0,0,0,36.3,0,61.9
			c0,0,9.1-30.2,9.8-36.8C80.9,206.8,95.6,161.4,97.7,154.7z"/>
		<path fill="#FFDCB8" d="M126.5,128.3c0,0-5.2,26.2-6.1,28.4c-16.4,16.5-18.5,7.7-17.7,0c-1.3-1.7,4.4-20.7,4.4-27
			C115.8,128.3,126.5,128.3,126.5,128.3z"/>
		<path fill="#232728" d="M70.3,252.2c0.3-0.5-2.4,12.5-2.6,17.3C67.8,269.5,68.1,256,70.3,252.2z"/>
		
			<ellipse transform="matrix(0.9873 0.1589 -0.1589 0.9873 41.1454 -7.3001)" fill="#232728" cx="66.2" cy="253.7" rx="1.1" ry="1.5"/>
		
			<ellipse transform="matrix(0.9873 0.1589 -0.1589 0.9873 42.5881 -7.0036)" fill="#232728" cx="65.1" cy="262.8" rx="1.1" ry="1.5"/>
		<path fill="#676B6B" d="M133.1,154.7c0,0-1,15.8,5.3,23.8c0,0-21.8,7.6-31.1,9.1c0,0,9.9,8.3,19.2,14c0,0-50.7,26.9-56.2,48.7
			c0,0,5.7-26.7,9.2-35.5S126.8,159.7,133.1,154.7z"/>
		<path fill="#E5E5E5" d="M112.8,156.9c-0.8,0.6-1.9,1.5-3,2.5l-0.9-2.7l-2.7,5.6c-0.6,0.6-0.9,1.5-1.3,2.1l-0.8-7l-1.2,1.3
			c-0.1-0.5-0.2-0.9-0.3-1.2c-4.2,0.4-6,0.7-6,0.7c-5.1,11.4-17,56.6-17,56.6c8.6-16.5,51.1-58.1,51.1-58.1
			C123.5,156.6,117.6,156.7,112.8,156.9z"/>
		<path fill="#FFFFFF" d="M125.1,146.8c0,0-14,8.8-16.2,9.9c0,0,2.1,9.1,3,11.3c0,0,20.4-11.3,22.3-14.3L125.1,146.8z"/>
		<path fill="#FFFFFF" d="M103.5,149.4c0,0-0.7,4,0.6,7.9c0,0-3.5,7.9-5.4,9.2c0,0-2.5-8.2-2.8-11.2L103.5,149.4z"/>
		<path fill="#141414" d="M111.1,166.1c0,0-10.7-1.5-11-1c-0.3,0.5,1.5,10.5,1.5,10.5s3.7,2.4,4.2,1.5S111.1,166.1,111.1,166.1z"/>
		<path fill="#141414" d="M101.5,175.4c0,0-6.6,16.9-31.1,27C56.2,208.3,32.3,233,37.3,255c0,0,11.3,13.2,14.6,13.5
			c0,0,9.9-10.2,12.1-13.5c0,0-9.8-29.4,13.6-43.8c27.5-16.9,28-33.9,28-33.9L101.5,175.4z"/>
		<path fill="#A0A3A3" d="M108.9,156.7c0,0-3.5,6.4-4.1,7.6c0,0-0.5-5.5-0.8-6.9c0,0,0.3,6.7,0.6,8
			C104.7,165.4,106.9,161.6,108.9,156.7z"/>
		<path fill="#232728" d="M55.1,272.3c-0.5,0.1,11.6-0.6,13.6-0.3l1,1.2c0,0,19.8,3.4,28.4,6.3c0,0-16.4-4.6-28.7-5l-1.2-1.6
			C68.3,273,58.4,271.8,55.1,272.3z"/>
	</g>
	<g>
		<path fill="#464B4C" d="M134.2,153.7c0,0,58.3,6.9,61.1,48.2c3.7,55.6-86.4,44.3-86.4,44.3s9.6-16.8,4.5-22.7
			c0,0,62.2,18.1,65.8-17.3c2.2-21.8-28.4-31.4-36.7-33C134.2,171.7,133,158,134.2,153.7z"/>
		<g>
			<path fill="#C9F2FF" d="M102.8,253.7c-1.7,7.7,0,10.7,0,10.7c2.3,1.6,37.1-5.4,59.2-13.6c3.7-1.4,8-6.8,10.5-8.2
				c0,0,5.2,0.7,5.8,4.6c0.2,1.4,0,2.9-3.2,5.8c0,0-55.6,17.1-80.2,19.2c-3.9,0.3-7.5-1.8-9.6-2.7c-1.4-2.6,0.1-18.6,0.1-18.6
				S98.3,251.5,102.8,253.7z"/>
			<path fill="#0C0C0C" d="M97.9,207.7c0,0-6.6,36.7-7.6,39.9c-1,3.3,8,4.7,10.8,3.8c2.9-0.9,12.9-36.2,13.4-39.2
				C114.5,212.2,106.5,207.1,97.9,207.7z"/>
			<path fill="#2D2D2D" d="M86.7,243.9c0,0,17.2,3.7,19.4,5.9c0,0-1.2,6.9-3.3,9c-2.2,2-17.3-4.6-18.6-5.7
				C83,252,84.2,247.6,86.7,243.9z"/>
		</g>
		<path fill="#FFDCB8" d="M118.1,225.1c0,0-1.5-4-4.4-9.7c-1.5,4.6-2.8,7.2-2.8,7.2s-15.1-8.1-17-5.2c-1.9,2.9-0.8,8.1-0.8,8.1
			s-4.6,0.4-4.5,4c0,3.6,0.4,5.4,0.4,5.4s-3.6,2.8,0.1,5.3c3.7,2.4,16.3,7.5,19.8,6C112.4,244.7,118.5,233.3,118.1,225.1z"/>
	</g>
</g>
</svg>
