<?xml version="1.0" encoding="utf-8"?>
<!-- Generator: Adobe Illustrator 18.1.1, SVG Export Plug-In . SVG Version: 6.00 Build 0)  -->
<svg version="1.1" xmlns="http://www.w3.org/2000/svg" xmlns:xlink="http://www.w3.org/1999/xlink" x="0px" y="0px"
	 viewBox="0 0 736.5 631.5" enable-background="new 0 0 736.5 631.5" xml:space="preserve">
<g id="Background">
</g>
<g id="Objects">
	<ellipse fill="#DFE7F4" cx="570.7" cy="592.5" rx="156" ry="23.6"/>
	<ellipse fill="#DFE7F4" cx="263.7" cy="592.5" rx="252.9" ry="23.6"/>
	<g>
		<path fill="#464B4C" d="M516.7,192.8c-6.6-9.1-87.9-1.8-124.9-42.1S358.9,48,358.9,48s-21.9,3.5-27.3,0.8c0,0,2,71.2,46.9,116.2
			C412.5,199.1,536.6,220.2,516.7,192.8z"/>
		<g>
			<path fill="#131414" d="M472.8,544.5c0,26.5-21.5,48-48,48H81.5c-26.5,0-48-21.5-48-48V72c0-26.5,21.5-48,48-48h343.3
				c26.5,0,48,21.5,48,48V544.5z"/>
			<path fill="#70A9B2" d="M446,508.9c0,23.3-18.9,42.1-42.1,42.1H102.5c-23.3,0-42.1-18.9-42.1-42.1V94.1
				c0-23.3,18.9-42.1,42.1-42.1h301.3c23.3,0,42.1,18.9,42.1,42.1V508.9z"/>
			<path fill="#AECCD3" d="M438.4,503.5c0,22.7-18.1,41-40.5,41H108.4c-22.4,0-40.5-18.4-40.5-41v-404c0-22.7,18.1-41,40.5-41h289.5
				c22.4,0,40.5,18.4,40.5,41V503.5z"/>
			<g>
				<circle fill="#464B4C" cx="251.4" cy="571.3" r="15.2"/>
				<circle fill="#6E797A" cx="251.4" cy="571.3" r="11.8"/>
			</g>
			<linearGradient id="SVGID_1_" gradientUnits="userSpaceOnUse" x1="253.1674" y1="-156.8701" x2="253.1674" y2="311.8003">
				<stop  offset="0" style="stop-color:#FFFFFF"/>
				<stop  offset="1" style="stop-color:#FFFFFF;stop-opacity:0"/>
			</linearGradient>
			<path fill="url(#SVGID_1_)" d="M472.8,72c0-26.5-21.5-48-48-48H81.5c-26.5,0-48,21.5-48,48v141.6l439.3,243.1V72z"/>
		</g>
		<g>
			<path fill="#FFDCB8" d="M332.8,21.3c0,0-2.5-5-7.2-5s-5.3,4.7-5.3,10s1.3,15.2,6.6,16.1C332.1,43.4,333.6,36,332.8,21.3z"/>
			<path fill="#FFDCB8" d="M339.6,13.8c-4.7,0.4-7.4,4.1-6.8,16c0.5,11.9,3.9,12.4,6.3,12.6C346.3,43.3,350.4,13,339.6,13.8z"/>
			<path fill="#FFDCB8" d="M353.3,18c-6.7,0-7,5.5-8.2,11.9c-1.2,6.4,0.7,13.1,5.5,12.6c4.7-0.5,5.9-9.1,6.7-13.1
				C358.3,24.6,358.8,18,353.3,18z"/>
		</g>
		<g>
			<g>
				<path fill="#281D12" d="M533.7,573.9c0,0-12,6.2-20,6.8c-8,0.7-15,0.7-16,7c-1,6.3,0,11.3,0,11.3s31,1.3,43.7-1.7
					c0,0,17,2.7,18.7-0.7c1.7-3.3,0-22.8,0-22.8S539.8,571,533.7,573.9z"/>
				<path fill="#464B4C" d="M537.3,340.3c0,0,2,184.7-6.3,233.3c0,0,10,5.9,31.3,7c0,0,11.1-197.7,10.4-214.3
					c-0.7-16.7,2.7-24,0-32.7C570,325,537.3,340.3,537.3,340.3z"/>
			</g>
			<g>
				<path fill="#281D12" d="M629,578c0,0,12.3,5.6,16.7,5.3c4.3-0.3,14-1.3,15,1.7s0,13.3,0,13.3s-42.3,2.3-50-0.1
					c0,0-10.7,2-13.3-0.7c-2.7-2.7,0-21,0-21S624.4,577.7,629,578z"/>
				<path fill="#464B4C" d="M545.5,343c0,0,20.3,14,28.5,26.7c8.2,12.7,20.9,201.7,20.5,211c0,0,16.5,5.3,32.9-3.7
					c0,0-9.1-223.4-9-262C618.3,315,557.2,323,545.5,343z"/>
			</g>
			<g>
				<path fill="#9E9E9E" d="M508.6,184.5c0,0,24.2-15.6,29.4-18.6l5.4,7.4L525,193.2l-17.3-3.9L508.6,184.5z"/>
				<path fill="#464B4C" d="M540.4,172.1c0,0,16.4-4.3,21.3-6.3c8.2-3.3,16.3,11.6,24.5,28.3c14.1,28.6,31.3,89.4,40,133.9
					c0,0-34.5,17.7-55.5,16.5l-6.8-8c0,0,0.9,5.8,2.4,9.8c0,0-21.2,8.3-33.2,4.3c0,0-15.8-109.4-31.7-158.6
					C501.3,191.9,529.1,178.2,540.4,172.1z"/>
				<path fill="#FFDCB8" d="M507.3,171.3c0,0,10.4,17,9.9,21c17.5,27.1,15.4-10.2,15.4-10.2s-7.3-14.7-11.7-21
					C516.5,154.8,507.3,171.3,507.3,171.3z"/>
				<path fill="#E5E5E5" d="M523.3,182.8l3,19l-10.1-16.3l-7.1,9.2c0,0,18.4,53.2,32,73.2c0,0,0.5-75.4,3.9-90.2L523.3,182.8z"/>
				<path fill="#141414" d="M533.1,199.4c0,0-9.7,0.6-13.9,5.9l3,8.6l7.7-2L533.1,199.4z"/>
				<path fill="#141414" d="M541.8,230.4L529.9,212l-7.7,2c0,0,4.3,26.5,5.1,33.7l14,24.2L541.8,230.4z"/>
				<path fill="#676B6B" d="M540.2,168.5c0,0,14.9,8.3,24,14.4c0,0-6.7,11.6-16.9,22.2c0,0,20.1,15.1,20.9,17
					c0,0-20.5,32.4-26.9,49.6c0.1-16.4,1.7-80.1,3.4-94.6L540.2,168.5z"/>
				<path fill="#676B6B" d="M507.9,190.4c0,0-1.6,14-5.7,23.4c0,0,6.8,4.8,12.1,6.8c0,0-4.5,16.3-5.4,24.6c0,0,19.5,11.4,32.4,26.6
					C541.2,271.8,508.9,199.8,507.9,190.4z"/>
				<path fill="#232728" d="M542.4,274.7c0,0,11.2,44.2,19.3,58.4C561.7,333.1,546.6,283.6,542.4,274.7z"/>
				
					<ellipse transform="matrix(-0.9518 0.3068 -0.3068 -0.9518 1171.7438 451.4038)" fill="#232728" cx="550.4" cy="317.8" rx="3.5" ry="3.9"/>
				
					<ellipse transform="matrix(-0.9518 0.3068 -0.3068 -0.9518 1142.8966 402.9951)" fill="#232728" cx="539.8" cy="291.3" rx="3.5" ry="3.9"/>
				<path fill="#FFFFFF" d="M516.3,185.5l1.6,18.3c0,0-9.5-8.3-10.9-11.7l1.6-7.6L516.3,185.5z"/>
				<path fill="#FFFFFF" d="M537.9,165.8l-14.6,16.9l10.7,12.6c0,0,12.2-18.2,12-20L537.9,165.8z"/>
				<path fill="#232728" d="M537.1,351.4c0,0,16.4-0.9,29.2-5.1l-2.4-9.8c0,0,4.1,6.8,8.4,8.1c0,0,27.7-5.4,46.9-14
					c0,0-20,10.7-47.4,17.8l-4.9-5.5c0,0,1.6,4,1.2,5.8C568.1,348.5,550.7,353.5,537.1,351.4z"/>
			</g>
			<g>
				<path fill="#725C2B" d="M423.6,93.8c0,0-0.5,30.1,28.2,40.5C480.5,144.8,434.6,80.4,423.6,93.8z"/>
				<path fill="#FFDCB8" d="M430.5,97.5c0,0,22.8,57.6,42.2,76.8c19.4,19.2,62-12,64.7-27.1c2.7-15.1-14.8-49.4-14.8-49.4
					s-22.9-43.5-41.8-43.7C461.8,53.9,424.6,73.5,430.5,97.5z"/>
				<path fill="#725C2B" d="M527,109.7l-6.2,1.1c0,0-31.3-32.2-28.9-44.5c0,0-5.9,11.9-9.9,12.5c-4,0.7-3.7-8.6-3.7-8.6
					s-12.8,19.4-17.9,20.3s-1.7-10.9-1.7-10.9s-22.6,30.6-28.5,28.2c-5.8-2.4,0.2-10.3,0.2-10.3s-47.2,12.7-31-32
					c0,0,4.8-5.2,16.6,1.4c0,0,4.9-21.6,13.8-28.1c8.5-6.3,14.9,10.8,14.9,10.8s32.2-30.6,58.8-15.9c0,0-7.3-12.2-6.7-14.6
					c0.6-2.4,11.1-3.8,17.2,9.3c0,0,7.9-13.5,15.1-4.5c7.3,9-0.1,15.9-0.1,15.9s30.3,32.7,10.1,65.2L527,109.7z"/>
				<path fill="#FFDCB8" d="M524.7,110.1c0,0,1.3-14.5,12.2-16.2c10.9-1.7,22.9,33.1-1.3,36.9C525.3,132.4,524.7,110.1,524.7,110.1z
					"/>
				<path fill="#CB8F5E" d="M464.4,115.2c0,0,9.4,7.9,9.7,12c0.3,4.1-11.3,4.4-9.7,7.9c1.6,3.4,4.3,5.1,11.6,0.9
					c0,0-9.5,7.4-12.6,3.6c-5-6.1-1.7-9.6,5.6-11.2C474.1,127.1,468.6,120.4,464.4,115.2z"/>
				<g>
					<path fill="#DA9089" d="M519.1,133c0.5,9.6-1.2,21.4-10.1,28.2c-3,2.3-6.1,3.3-9.2,3.6C498.9,150.8,511.6,138.8,519.1,133z"/>
					<path fill="#753427" d="M470.3,148.6c14.9-14.9,46.3-31.1,46.3-31.1s2.1,6.8,2.5,15.4c-7.5,5.8-20.2,17.8-19.3,31.8
						C485.1,166,470.3,148.6,470.3,148.6z"/>
				</g>
				<path fill="#493918" d="M487.4,89.8c0,0-10.4,0-16.4,6.1C471,95.9,475.8,83.6,487.4,89.8z"/>
				<path fill="#493918" d="M451.7,107c0,0-9.8,3.6-10.5,8.5C441.1,115.5,441.7,103.7,451.7,107z"/>
				<path fill="#190F08" d="M479.2,112.4c0,0-0.5-7.1,4.6-10c5-2.9,9.2-2.2,13.5,1.6C497.3,104,485.6,100.6,479.2,112.4z"/>
				<path fill="#190F08" d="M450.7,130.9c0,0-0.4-7.1,4.2-10c4.7-2.9,8.6-2.2,12.6,1.6C467.5,122.5,456.7,119.1,450.7,130.9z"/>
			</g>
			<g>
				<g>
					<path fill="#FFDCB8" d="M386.1,283.6c0,0-25.6-26.6-32.1-31.6c-6.5-5-10,9.4,7,22.7c0,0-9.2,1.8-12.4,4.3
						c-3.1,2.5-7.6,17.5-4.6,22c3,4.5,16,8,17.5,6l1.5-3.1c0,0,16.7,6.8,23.1,3.7C392.5,304.5,386.1,283.6,386.1,283.6z"/>
					<path fill="#FFDCB8" d="M386.1,283.6c0,0-4.1-9-6.6-11.8c-2.5-2.8-9,2.9-9,2.9L386.1,283.6z"/>
				</g>
				<path fill="#464B4C" d="M563.8,165.8c-10.3-4.6-20.7,84.1-69.4,108.9c-48.8,24.8-108.2,8.8-108.2,8.8s-2.6,22-6.6,26.5
					c0,0,69.5,12.4,125.1-18.7C546.5,267.9,596.8,180.5,563.8,165.8z"/>
			</g>
		</g>
	</g>
</g>
</svg>
