<?xml version="1.0" encoding="utf-8"?>
<!-- Generator: Adobe Illustrator 18.1.1, SVG Export Plug-In . SVG Version: 6.00 Build 0)  -->
<svg version="1.1" xmlns="http://www.w3.org/2000/svg" xmlns:xlink="http://www.w3.org/1999/xlink" x="0px" y="0px"
	 viewBox="0 0 709.5 706.5" enable-background="new 0 0 709.5 706.5" xml:space="preserve">
<g id="Background">
</g>
<g id="Objects">
	<ellipse fill="#DFE7F4" cx="338" cy="660.1" rx="270.2" ry="35.7"/>
	<path fill="#422D0E" d="M338.2,71c0,0-17.7,2.3-24.5,14.8s-12.3,61.4,5.4,113.7s21.6,98.6,21.6,98.6l9-14.8l11.1,40.3
		c0,0,16.2-10,19-33.2c0,0,3.4,17.1,0.5,22.2c0,0,25.8-54.1,27.1-117.6c1.3-63.5-2.3-89.6-13.9-107.9C382,68.7,362.7,56.2,338.2,71z
		"/>
	<g>
		<g>
			<path fill="#0A364F" d="M416.7,348.5c0,0-19.3,125-19.3,137.2c0,12.2,36.7,99.8,39.3,106.3c0,0,1,4.5,0,8.1
				c-1,3.5,2.6,6.4,4.2,7.1c1.6,0.6,3.2,7.4,3.2,9.3c0,1.9,0,7.4,0,7.4s9,4.8,23.5-4.2c0,0-5.8-17.1-5.8-19.7s-1.3-10-3.9-12.9
				c-2.6-2.9-21.9-88.3-22.6-97.9c-0.6-9.7,25.1-93.4,29.5-97.8c0,0,67.7,75.9,75.4,85.5c0,0,26.6,81.3,27.1,87.3c0,0-5.3,6.6,0,9.9
				c5.3,3.4,4.8,19.3,5.8,21.7s1.4,8.7,5.8,8.7c4.3,0,14-2.9,15.5-5.3c1.4-2.4-3.9-26.1-3.9-30.4c0-4.3-3.4-12.6-3.4-12.6
				s-10.6-79.4-13-86.9c-2.4-7.5-62.3-103.8-67.2-114.6C502,344.2,416.7,348.5,416.7,348.5z"/>
			<path fill="#222C30" d="M590.4,599.7c0,0,20.3-1.9,22.2-3.9c1.9-1.9,14-26.3,17.4-25.5c3.4,0.8,14.5,4.7,17.4,9
				c0,0-25.6,38-34.8,41.7c0,0-5.8-3.1-7.2-2.6c-1.4,0.5-0.5,5.3-0.5,5.3s-19.3,3.7-23.7,3.3c-4.3-0.4-4.8-19.8-4.3-23.1
				C577.4,600.7,590.4,599.7,590.4,599.7z"/>
			<path fill="#222C30" d="M447.3,624c0,0-5.2,24.1-8.5,28.5c-3.4,4.4-27.8-1.4-25.5,23.7c0,0,40,3.4,45.3-2.4
				c5.3-5.8,10.1-18.4,10.1-18.4l-2.4-9.2c0,0,6.8-2,7.7-4.1c1-2.1,3.9-14.8,3.9-14.8s-12.1-7.1-17.9-6.6
				C454.2,621.1,447.3,624,447.3,624z"/>
		</g>
		<g>
			<path fill="#69AFDF" d="M430.4,190.4c0,0-14.7-1.9-33.1,3.7c0,0,6,57.2,16.5,90.7c0,0-10.7,59.3-11.4,65.1
				c0,0,32.7,18.2,48.9,20.4l4.9-21c0,0,4.8,20.6,10.6,19.7c0,0,40.6-5.5,54.8-20.3c0,0-13.5-49.2-13.9-54.9s13.5-47.6,16.4-61.4
				s6.8-30.9,0-34.5c-6.8-3.5-42.7-7.7-49-6.9S430.4,190.4,430.4,190.4z"/>
			<path fill="#7FCBF6" d="M443.1,194l11.4,9.2c0,0-9.3,11-9.7,11.9s-19.4-23.2-20-27.4c-0.6-4.2,12.3-4.7,12.3-4.7L443.1,194z"/>
			<path fill="#7FCBF6" d="M480.5,182.8c-1,0.1-26,20.4-26,20.4s14.6,10.4,15.8,12c0,0,18.9-17.4,18.9-23.7s0-1.1,0-1.1L480.5,182.8
				z"/>
			<path fill="#4587AC" d="M455.3,208.1c0,0-3.9,103.7,1,137.5C456.3,345.7,446.8,274.6,455.3,208.1z"/>
			<ellipse fill="#4587AC" cx="444.8" cy="228.2" rx="2.4" ry="3.7"/>
			<ellipse fill="#4587AC" cx="444.7" cy="255.7" rx="2.4" ry="3.7"/>
			<ellipse fill="#4587AC" cx="444.8" cy="288.3" rx="2.4" ry="3.7"/>
			<ellipse fill="#4587AC" cx="447.3" cy="319.9" rx="2.4" ry="3.7"/>
			<ellipse fill="#4587AC" cx="447.3" cy="355" rx="2.4" ry="3.7"/>
			<path fill="#7FCBF6" d="M466.9,229.6c0,0,30.3,2.3,31.9,2.3c0,0-1.6,22.6-2.6,23.8c-1,1.3-14.2,9.7-15.8,9.7s-12.2-7.4-13.5-9.7
				C465.6,253.5,466.9,229.6,466.9,229.6z"/>
		</g>
		<path fill="#69AFDF" d="M397.3,194c0,0-33.1,61.6-39.9,65.4c-6.8,3.9-40.1-64.9-40.1-64.9s-14.7,12.4-15.8,20.6
			c-1.1,8.2,40,74.2,58.4,73.1c18.4-1.1,43.7-48.8,43.7-48.8S403.7,202,397.3,194z"/>
		<g>
			<path fill="#69AFDF" d="M642.5,186.8c0,0,22.2,10.7,25.8,18.3c0,0-44.2,73-76.4,75c-32.2,2-72.2-38.6-78.3-43.1
				c-6.1-4.5-10.6-13.5-7.7-24.5c2.9-11,14.9-20.7,18.4-14.8s45.7,47.7,60.6,47C599.7,244.1,637.4,199,642.5,186.8z"/>
			<path fill="#FFDAC6" d="M647.5,194c0,0-15.5-22.5-18.8-27.2c-3.4-4.8,4.5-8.2,7.4-5.5c2.9,2.7,10.3,9.8,11.4,10.4
				c1.1,0.6,6-4.6,7.2-7.9c1.3-3.3,5.2-26,6.8-26.4c1.6-0.4,7.1,0,7.7,1.4c0.6,1.4-3.9,25.7-3.2,26.9c0.6,1.3,15.1-23.9,16.8-23.3
				s6.1,4.1,6.4,6.1c0.3,2-13.9,23.3-13.5,24.9c0.3,1.6,19.3-6.9,20.6-6.5c1.3,0.4,2.9,7.3,2.6,8c-0.3,0.7-17.7,10.1-20,12
				c-2.3,1.9-12.1,18.4-15.5,18S648.9,196,647.5,194z"/>
		</g>
	</g>
	<path fill="#F1C9B5" d="M289.5,215.2c0,0-18.8,43.7-26.5,52.8c-7.8,9.2-38.2,24-38.2,24s-4.3,9.9-2.4,11.8
		c1.9,1.9,43.3-15.9,50.2-23.7c6.8-7.8,32-56.3,32-56.3S297.9,216.8,289.5,215.2z"/>
	<path fill="#1F5999" d="M297.1,227.2c0,0-8-9.5-10-10.8c-2-1.3,8.4-23.2,13.5-27.1c5.2-3.9,15.6-6.3,15.6-6.3s-3.1,29.2-3.9,32.4
		C311.6,218.7,297.1,227.2,297.1,227.2z"/>
	<g>
		<path fill="#FFDAC6" d="M401.2,188.2c0,0,7.8-5.2,9.5-5.2c1.7,0,9.9,7.3,9.9,7.3S403.4,187.4,401.2,188.2z"/>
		<g>
			<path fill="#FFDAC6" d="M258.5,197.7c0,0-1.3-3.6,6.1,0.9c7.4,4.5,28,27.2,37,35.5c9,8.3,5.6,21.5,5.6,21.5s-26.9-17.5-36.5-28.5
				C261.2,216.3,258.5,207.7,258.5,197.7z"/>
			<path fill="#FFDAC6" d="M350.4,234.2c0,0,22.6-8.1,31.3-20.8c8.7-12.7,12.9-20.9,15.6-23.3s19.1-6.6,23.3,0.3
				c0,0-12.9,2.2-15.3,3.7c-0.5,3.7,0.7,3.6,3.7,5.1s11.6,2.4,11.6,6c0,0-14.2,5.2-22-0.3c0,0-7.6,18-20,29.3s-35.7,23.2-44.1,23.1
				C326.1,257.2,350.4,234.2,350.4,234.2z"/>
		</g>
	</g>
	<path fill="#5B5D72" d="M226.7,595.4c0,0-4.8,10.2-5.3,12.6c-0.5,2.4,3.7,23.6,5.3,24.9c1.5,1.2,22.3-1.7,21.8,16.2
		c0,0-28.5,3.9-40.1,0c-11.6-3.9-11.6-37.7-12.1-44c-0.5-6.3,20.3-19.1,20.3-19.1L226.7,595.4z"/>
	<path fill="#303030" d="M204.4,314.9c0,0,27.8,19.9,70.1,0c0,0,26.1,108.2,27.1,148.2c0,0-42.2,75.4-54.8,101.9
		c-12.5,26.4-8.7,18-15.4,27c-3.4,4.6-8.1,14.2-8.1,14.2s-14.5-7.2-12.8-14.2s11.6-19.3,16.7-25.7c5.1-6.4,26.8-90.2,40.4-103.2
		c0,0-26.3-91.8-35-115.5C232.7,347.6,192.4,330.8,204.4,314.9z"/>
	<path fill="#5B5D72" d="M42.6,531.2c0,0-8.8,16.4-9.7,21.5c-1,5.1,5.8,23.4,0,25.6s-11.1,2.3-11.1,2.3s-10.1-34-4.3-46.5l4.8-4.8
		c0,0-6.3-5.8,0.5-15.9c0,0,15.1,4.3,21.6,7.2C50.7,523.4,42.6,531.2,42.6,531.2z"/>
	<path fill="#303030" d="M259.7,345.7c0,0-12.5,4.8-12.8,9.3c-0.3,4.5-38.5,87.6-67.1,119.2c0,0-94.3,44.5-107.8,50.9
		s-23.8,9-27.7,9s0-13.5,0-13.5s22.6-11.6,29.6-15.5c7.1-3.9,50.5-35.5,73.5-44.5c0,0,32.4-72.8,38-101.9
		c2.5-13.3-0.5-32.9,19.1-43.8C204.4,314.9,245,342.8,259.7,345.7z"/>
	<path fill="#FFDAC6" d="M230.5,186.8c0,0-15.5,3.2-22.6,0c-7.1-3.2-47-17.5-62.5-44.5s-18.4-60.5-11-84.1c0,0,11.9-2.9,14.5-6.1
		c2.6-3.2,5.2-8.7,6.4-11c1.3-2.3-3.9-4.8-5.2-3.9c-1.3,1-4.5,5.2-7.4,5.8c-2.9,0.6-5.2-8.1-7.4-13.5c-2.3-5.5-13.9-15.5-17.4-13.2
		c-3.5,2.3,4.2,8.4,5.5,10.6c1.3,2.3,3.9,9,3.9,9s-6.7-7.1-10.3-9.3c-3.6-2.3-11.6-4.5-13.3-1.9s5.8,6.4,7.7,8.7s4.2,7.4,4.2,7.4
		s-10.4-5.5-12.1-6.4c-1.7-1-8.8,0-8.8,3.2c0,3.2,11,5.5,15.8,9.7s6.8,10,6.8,10s-13.1,64.8,11.1,96.7s70.1,59.4,70.1,59.4
		s10.6,28.5,12.1,29.1s58-8.7,53.9-21.6c-4.1-12.9-10.4-26.4-10.4-26.4s-10-1.6-13.8-5.8S230.5,186.8,230.5,186.8z"/>
	<path fill="#3C446D" d="M207.1,186.4c0,0,10.7-0.2,13,1.7c2.3,1.9,14.3,37.8,32.6,32.8c14.5-3.9-1-26-2.7-26.9c0,0,3.7-1.4,8.5,0.5
		c0,0,7.6,21.8,10,24.8c2.5,3,10.5,17.1,11.8,21.6s-6.2,13.2-6.2,13.2s0.1,16.7-1.1,22.8c-1.2,6.1-2.3,22.7-2.3,22.7l4.1,16.5
		c0,0-35.7,20.5-71.4,0c0,0,18-21.1,18.4-27.9s-9.4-37-12.9-47c-3.5-10-8.4-22.9-8.4-22.9s5.8,12.9,10.2,13.5
		c4.5,0.6,10.9-15.2-2.7-45.1"/>
	<path fill="#FFDAC6" d="M238,171c0,0,4.3,16.8,6.8,19.8c2.5,3.1,4.5,4.6-4.4,3.2c-8.9-1.4-13-4-13-4s-5.1-27.4-7.1-33.9
		C218.3,149.5,235.3,167.1,238,171z"/>
	<path fill="#FFE564" d="M246.9,67.5c0,0-24.4-7.2-45.2,10.9s-18.8,37.8-16.9,47.4c1.9,9.6-2.4,24.9-3.9,25.2
		c-1.4,0.3,10.9,1.4,14.5,0c0,0-1.7,10.6-3.4,12.7c-1.7,2.1,9.9-1,13-4.1c0,0-1,8.9,0,8.5c1-0.5,14.7-3.8,17.4-10.1
		c2.7-6.3,46.6-3.9,46.6-3.9s9.9,0.3,11.6,0c1.7-0.3-3.4-3.6-3.6-5.3c-0.2-1.7,5.3-0.2,7.5,0c0,0-5.7-7.2-10.6-15.4
		c-4.9-8.3-3.5-7.4-2.7-10.5c0.7-3.1,8.6-16.6,5.1-33C272.8,73.3,252.5,69.7,246.9,67.5z"/>
	<path fill="#FFDAC6" d="M269.4,106.3c0,0,7.4,33.7,4.8,44.7s-15.1,25.8-25.5,25.8s-27.4-11.6-30.3-25.8l-3.9-20
		c0,0,22.1-16.4,21.6-37.4c0,0,2.9,14.9-3.1,21.2c0,0,19.6-11.8,22-25.1C255.1,89.7,261.1,106.5,269.4,106.3z"/>
	<path fill="#FFDAC6" d="M217.6,133.3c0,0-4.2-3.8-9.7-2.2c-5.5,1.6-7.1,10.5-4.8,13.5c2.3,2.9,14.5,9.3,15.8,0
		C220.2,135.2,217.6,133.3,217.6,133.3z"/>
	<g>
		
			<ellipse transform="matrix(0.9685 -0.2491 0.2491 0.9685 -22.3085 63.0599)" fill="#422511" cx="238" cy="119.7" rx="2.3" ry="3.6"/>
		<path fill="#B18004" d="M227.3,112.6c0,0,7-10,15.7-7.6C243,105,228.5,99.2,227.3,112.6z"/>
		<path fill="#CB926D" d="M250,110.9c0,0-0.2,9.6,3.1,10.7c3.4,1.1,6.8-0.1,7.5,1.2s-1.6,5.2-4.1,6.8c0,0,7.2-4.1,6.3-8.1
			c-1-4-6.4-0.4-9.2-1.9C250.8,118.2,250,110.9,250,110.9z"/>
		
			<ellipse transform="matrix(0.9685 -0.2491 0.2491 0.9685 -20.313 69.1296)" fill="#422511" cx="262.9" cy="114.8" rx="2.3" ry="3.6"/>
		<path fill="#B18004" d="M254.1,103.7c0,0,9.2-1.4,13.5,3.7C267.7,107.4,260.2,95.7,254.1,103.7z"/>
		<g>
			<path fill="#ECA999" d="M230.1,147.6c2.3,7.3,6.3,15,13.2,16.1c1.4,0.2,2.7,0.1,3.9-0.2C247.1,153.9,234.7,149.1,230.1,147.6z"/>
			<path fill="#983E1F" d="M264.5,141.2c-3.6-0.7-37.2-6.6-37.2-6.6s0.6,6.3,2.7,13c4.6,1.4,17,6.2,17.1,15.9
				C258.1,160.9,264.5,141.2,264.5,141.2z"/>
		</g>
	</g>
	<path fill="#FFDAC6" d="M210.7,288.3c-0.7,3.3,2.8,5.3,2.8,5.3s-4.2,1.4-1.6,6.4s15.7,6.8,16.7,3.8c0.5-1.5-1.4-3.2-4.7-4.9
		c-2.6-1.4-4-2.9-5.1-3.6c0,0,15.9,5,15.4,0c-0.2-2.7-4.2-4-7.6-5.7c-2.9-1.5-5.3-3.5-6.5-4c0,0,2.9,0.8,6.2,1.1
		c3.8,0.3,8,0.7,8-1.9c0-3.5-3.7-3.7-7.4-4.3c-2.1-0.4-6.5-0.7-6.8-2.5c-5.1-1-8.2,1.3-6.6,6.2C213.5,284.2,211.2,286.3,210.7,288.3
		z"/>
	<g>
		<path fill="#FFDAC6" d="M385.2,171c0,0,40.1-15.8,48.5-19.3c3.8-1.6,11.1-3.9,19.2-2.6c9.8,1.6,20.7,7.3,28.1,12.2
			c13.5,9,36.4,32.9,36.4,32.9S512,206.8,503,199c-9-7.7-36.4-30.6-51.5-32.5c-15.1-1.9-65.7,24.5-65.7,24.5L385.2,171z"/>
		<path fill="#FFDAC6" d="M503,195.5c0,0-9.3,8.7-10.6,11.3c-1.3,2.6-3.2,7.1-3.2,7.1s2.3,1.3,4.2,0c1.9-1.3,5.5-5.2,6.8-5.5
			c1.3-0.3,3.2,0.6,5.8,4.2c2.6,3.5,4.2,11.9,4.2,11.9s-0.3,9,2.3,9.7c2.6,0.6,3.2-7.1,3.2-10.6s-1.9-10.6-1.9-11.9
			c0-1.3,6.1,4.8,7.1,8.4s2.6,12.2,3.5,12.2c1,0,6.4-2.6,2.9-13.8c-3.5-11.3-4.8-10-4.8-10s7.4,4.2,10,8.4c2.6,4.2,3.2,7.7,4.5,7.4
			s1.9-3.8,0-9.3c-1.9-5.5-15.7-17.2-19.3-20.6C513.8,190.7,505,193.6,503,195.5z"/>
	</g>
	<path fill="#FFDAC6" d="M285.8,379.7c0,0,16.5,97.7,19,105.5c0,0-7.7,16.6-11.2,39.1c-3.5,22.5-9.8,52.1-8.6,53.7
		c1.3,1.6,7,6.8,13.6-4.6c6.7-11.5,29.7-70.7,32.3-88.8c0,0-1-108.5-4.3-118.6c-3.3-10.1-14-21.9-26.3-20.2S284.6,373.1,285.8,379.7
		z"/>
	<path fill="#7F7F7F" d="M285.5,552.7c0,0,7,7.9,20.3,9.6c0,0-17.4,42.7-21.5,51.8c-4,9.1-0.2,12.6-0.2,12.6s1.3,5.3-5.9,4.7
		c-7.2-0.6-7.7-5-7.1-10.3C271.7,615.7,285.3,563.3,285.5,552.7z"/>
	<path fill="#1F5999" d="M271.1,614.3c0,0,10.2,8.4,16.8,6.1c0,0,4.2,20.9,9.4,24.8c5.2,4,25.6,1,28.5,3.4c2.9,2.5,5.8,12.7,5.6,17
		c-0.2,4.3-35,5.1-46.6,3c0,0-22.9-18.4-25.1-27.1C259.7,641.6,268.4,619.8,271.1,614.3z"/>
	<path fill="#FFDAC6" d="M334.6,364.5c0,0-7.4,96.1-6.5,110.3c1,14.2,42.8,83.8,46.7,91.5c3.9,7.7,4.8,13.5,10.4,11.6
		c5.7-1.9-4-38.7-9.8-56.1c-5.8-17.4-17.2-39.3-17.9-41.9c0,0,14.7-55.5,17.3-81.3C377.4,372.9,370.3,350,334.6,364.5z"/>
	<path fill="#7F7F7F" d="M368.2,562.1c0,0,15.3-9.2,18.8-9.2c0,0,23.6,69.1,26.1,73.5s-20.2,14-20.9,10.1c0,0,4.5-10.6-0.3-24.6
		C387,597.9,371.1,568.9,368.2,562.1z"/>
	<path fill="#1F5999" d="M403.9,628.8c0,0-4.2,5.3-13.2,0c0,0-15.8,28.5-22.5,30c0,0-12.1-2.9-15.9-1.9c-3.9,1-9.2,13.5-7.2,16.9
		c0,0,22.2,11.6,47.1,5.3c0,0,10.4-16.9,14.7-21.7c0,0,1.7,2.9,6.4,1.9s12.9-9.2,13.4-13.5c0,0-10.9-18.5-13.4-21.7
		C413.2,624,409.3,626.4,403.9,628.8z"/>
	<path fill="#6B86FC" d="M293.8,307.8c0,0-11.8,29.6-13.7,57.6c-1.9,28,0,59,0,59s27.7,11.6,45.8,7.1c18.2-4.5,60.3-4.5,63.8-9.7
		c0,0-4.1-80.6-24.6-109.7C365.1,312.1,302.5,316.9,293.8,307.8z"/>
	<g>
		<path fill="#FFDAC6" d="M350.4,164.9c0,0-2.9,13.9-2.8,17.1c0.1,3.2,6.3,1.9,9.3,0c0,0,0.5,5.5,0,11.6s-9.4,27.7-24.4,24.5
			c-15.1-3.2-14.7-29-12.5-35.1c0,0,4.8,1.6,7.1,1c2.3-0.6,9.8-6.4,9.4-19C336.5,164.9,348.2,162.3,350.4,164.9z"/>
		<path fill="#1F5999" d="M323,181.6c0,0-4.6,1.2-7.9,1.7c0,0-2.7,23.2-5.8,30c-3.1,6.8-16.2,14-14.5,21.7
			c1.7,7.7,8.9,11.6,8.9,11.6s-4.3,17.4,1.4,31.7c0,0-17.1,25.7-18.6,45.3c0,0,59.9,14,86.2,0c0,0-7.9-29.6-25.3-44.6
			c0,0-6.5-2,2.7-26.4c0,0,14-2.4,14-14.5c0-12.1-5.6-21.3,1.2-28s26.8-19,26.8-19s-4.8-20.4-4.3-23c0,0-20.1,8.5-24.9,10.1
			c-4.8,1.7-7,4.4-7,4.4s-0.4,28.7-17.8,30.4C320.6,214.7,322.8,184.7,323,181.6z"/>
	</g>
	<g>
		<path fill="#FFDAC6" d="M312.4,178.4c0,0-7.3,1-7.9,2.9c-0.6,1.9,5.6,20.7,7.6,21.6c2,0.9,6.5-0.9,6.9-2.7
			S312.9,182.6,312.4,178.4z"/>
		<path fill="#FFDAC6" d="M301.5,180.3c-2.1-2-7.4,4.4-7.7,5.9c-0.3,1.5,8.8,21.2,10.4,21.9c1.6,0.6,7.4-2.9,7.8-5.1
			C312,203,305.4,183.8,301.5,180.3z"/>
		<path fill="#FFDAC6" d="M286.6,195.9c0,0,8.1,15.6,11.3,17.5c0,0,7.9-2.9,6.4-4.8s-9.6-16.9-10.1-18.1
			C293.6,189.4,285.7,194.2,286.6,195.9z"/>
	</g>
	<g>
		<g>
			<path fill="#FFDAC6" d="M344.8,80.8c0,0-6.1,20.6-18.7,30c0,0-7.7,24.5-5.8,33.2c1.9,8.7,9.7,23.5,21.6,25.1s29.6-11.3,34.5-20.6
				s9.3-23.4,9.3-23.4S348.1,112,344.8,80.8z"/>
			<path fill="#FFDAC6" d="M379.9,131.2c0,0,4.3-7.4,9.6-4.8c3.2,1.5,2.8,10.9,0,13.2c-2.8,2.3-8.1,5.3-10.2-1.4
				S379.9,131.2,379.9,131.2z"/>
			<path fill="#FFDAC6" d="M325.2,114c0,0,2.3-5.2-2.9-7.4c-5.2-2.3-13.5,11-8.1,16.1s9.3,2.3,9.3,2.3L325.2,114z"/>
		</g>
		<g>
			<path fill="#CB926D" d="M350.4,114.8c0,0-1.7,13.1-5.8,13.3c-4.1,0.2-7-3.9-9.2-2.9c-2.2,1-2.7,4.3,2.2,8.7c0,0-8-5.3-5.1-9.5
				c2.9-4.2,7.7,1.6,10.4,1.6S349.2,121.3,350.4,114.8z"/>
			<g>
				<path fill="#ECA999" d="M347.6,157.9c1.2,0.3,2.5,0.4,3.7,0.2c6-1.1,11.6-8,14.9-12.8C354.9,144.3,349.7,153,347.6,157.9z"/>
				<path fill="#983E1F" d="M366.3,145.3c1.9-2.7,2-8.8,2-8.8c-2.2,0.2-35.8,4.2-35.8,4.2s7.3,15.3,15.1,17.2
					C349.7,153,354.9,144.3,366.3,145.3z"/>
			</g>
			
				<ellipse transform="matrix(0.9724 0.2333 -0.2333 0.9724 38.532 -82.0721)" fill="#422511" cx="366.3" cy="121.9" rx="2.3" ry="3.5"/>
			
				<ellipse transform="matrix(0.9724 0.2333 -0.2333 0.9724 36.4794 -76.3699)" fill="#422511" cx="341.1" cy="116" rx="2.3" ry="3.5"/>
			<path fill="#1E1305" d="M336.5,103.5c0,0,10.5-5.3,13.8,0C350.4,103.5,345.2,93.6,336.5,103.5z"/>
			<path fill="#1E1305" d="M363.8,104.5c0,0,8.7,0.2,10.4,6.8C374.2,111.2,374,100.4,363.8,104.5z"/>
		</g>
	</g>
	<path fill="#353535" d="M419.4,119.5c0,0-7.7-10.7-7.2-18.2c0.5-7.5,8.5-11.8,21.5-12.3c0,0,4.8-2.7,9.7-2.4
		c0,0,15.5-11.6,32.1,1.2c0,0,16.4-0.1,23.4,13.5s4.6,30.2,1.2,38.4c-3.4,8.2-7,11.6-6.3,14.7s2.4,28-0.2,29.7s-4.4,1-4.4,1
		s1.5,9.7-3.3,11.1s-10.6-5.5-10.6-5.5s-4.8,7.2-14.5,6.9c-9.7-0.2-17.6-3.7-17.6-3.7s-4.1,4-6.3,0c0,0-3.1,4.5-7.2,2.8
		c-4.1-1.7-3.1-6-3.1-6s-3.4,1.1-5.8-0.5c-2.4-1.6,2.9-27.2,2.7-34.4S422,123.6,419.4,119.5z"/>
	<path fill="#FFDAC6" d="M423.3,121.9c0,0,2.4,30.7,1,36c0,0,3.9,4.9,6,5.8c0,0,4.6-6.8,6-7.5s6.8-2.7,9.2-3.1
		c2.4-0.5,9.7,1.4,9.7,1.4s16.6-7,17.9-5.8c0,0,8.7,11.6,9.9,12.1c1.2,0.5,3.9-2.6,3.9-2.6s1-23.2,0-24.1c-1-0.9-5.8-5.9-5.8-5.9
		s-1.9-11.2-3.1-13.3s-22-5-29.7-3.6c-7.7,1.4-13.8-0.4-13.8-0.4s0.5,2.6,1.7,2.8c0,0-7.7,2.5-11.4,1.1c0,0,1.9,3,4.3,3.6
		C429.1,118.4,425.5,121.6,423.3,121.9z"/>
	<path fill="#FFDAC6" d="M493.2,139.8c0,0,5.8-5.3,10.2-4c4.4,1.3,6.2,14.4,2.2,20.4c-4,6-11,5.1-11,5.1S490.9,145.9,493.2,139.8z"
		/>
	<g>
		<path fill="#FFDAC6" d="M449.6,145.9c0,0-8.6,1.6-9.2,2.3c-0.6,0.7,1,5.6,2.3,5.8s10.9,0.8,12.4,0.5s7.1-2.4,8.2-3.5
			S449.6,145.9,449.6,145.9z"/>
		<path fill="#CB926D" d="M447.8,135c0,0,2.7,10.7,1.8,10.9s-8.1,2.5-8.3,3.5c-0.3,1,0.1,3.6,0.7,4.6c0,0-2.5-3-2.3-5.8
			c0.2-2.8,8.5-2.4,8.6-3.7C448.4,143.3,448.3,136.9,447.8,135z"/>
		<path fill="#422511" d="M456.4,138.2c0,0,1.7-6.9,7.1-7.1c5.4-0.2,7.7,3.9,7.9,6.2c0,0-4-4.3-7.9-4.4S456.4,138.2,456.4,138.2z"/>
		<path fill="#422511" d="M430.4,142.3c0,0,1.1-7,5.8-7.3s7.2,2.2,7.5,5.6c0,0-3.1-4-7.6-3.3C431.6,137.9,430.4,142.3,430.4,142.3z"
			/>
		<path fill="#925C03" d="M455.3,120.5c0,0,7.8-1.5,10.7-0.6c2.9,0.9,4.3,3.5,4.3,3.5s-2.6-1.8-7.5-1.9
			C457.8,121.5,455.8,121.4,455.3,120.5z"/>
		<path fill="#925C03" d="M442.4,122.8c0,0-7.9,0-10.6,1.4c-2.7,1.5-3.6,4.2-3.6,4.2s2.2-2.3,7-3.2S442,123.7,442.4,122.8z"/>
		<g>
			<path fill="#ECA999" d="M456.4,182.8c0.3,0,0.5,0,0.8-0.1c8-1.1,12.1-9.1,14.3-16C466.5,167.4,454.8,170.3,456.4,182.8z"/>
			<path fill="#983E1F" d="M458.3,159.3c-0.2,0.7-2.4,4.4-2.4,4.4c-2.1-0.3-6.1-2.8-6.1-2.8c-2.9,1.4-14.5,2.8-14.5,2.8
				s7.2,20.3,21.2,19.1c-1.6-12.5,10.1-15.4,15.1-16.1c1.8-5.7,2.1-10.7,2.1-10.7C472.1,156.9,458.6,158.6,458.3,159.3z"/>
		</g>
	</g>
</g>
</svg>
