<?xml version="1.0" encoding="utf-8"?>
<!-- Generator: Adobe Illustrator 18.1.1, SVG Export Plug-In . SVG Version: 6.00 Build 0)  -->
<svg version="1.1" xmlns="http://www.w3.org/2000/svg" xmlns:xlink="http://www.w3.org/1999/xlink" x="0px" y="0px"
	 viewBox="0 0 409.5 519" enable-background="new 0 0 409.5 519" xml:space="preserve">
<g id="BACKGROUND">
</g>
<g id="OBJECTS">
	<ellipse fill="#DFE7F4" cx="219.4" cy="476.4" rx="180" ry="30.5"/>
	<g>
		<path fill="#E3E3E3" d="M305.1,455.2c0,0,4.6,7.6,6.2,9s8.1,2.6,11.7-1.2c3.6-3.8-1.3-9-1.3-9l-7.8-6.1L305.1,455.2z"/>
		<path d="M309.6,462.4c0,0-0.3,7,3.5,12.2c3.8,5.2,7.6,7.6,13.5,6c5.8-1.6,14.2-9.9,19.1-19.4s4.4-21.5,3.8-25.6s-3.2-8.7-7.1-8.4
			c-3.9,0.3-5.7,1.4-6.6,4.1c-0.5,1.6-0.6,1.8-0.6,1.8s5.4,3.4,6.6,9.9c1.2,6.5-8.1,15.5-11.5,17.6c-3.4,2-8.1,2.2-11.9,2.6
			C313.9,463.7,309.6,462.4,309.6,462.4z"/>
		<path fill="#4F4F4F" d="M335.2,433c0,0-0.9,3.7-2.6,8.2s-3.5,7.8-7.4,8.8c-3.9,1-5.8-1.7-7.1-0.6c-1.2,1.1-2.9,5.2-1.6,8.6
			s3.6,5.6,9.9,5.3s12.9-6.5,15.2-13.9c2.2-7.4,2-11.4-1.1-14.5C338.4,432.8,335.2,433,335.2,433z"/>
		<path d="M326.1,449.3l4-3.6c0,0,1.9,1.1,3.7,4.2c3,4.9,2.6,9.9,2.6,9.9l-4.4,4.9c0,0-0.7-6.6-2.7-10.6S326.1,449.3,326.1,449.3z"
			/>
	</g>
	<g>
		<path fill="#E3E3E3" d="M131,427.9c-0.5,0-6.6,2.4-7.5,4.1s-4.6,11-4.8,13.6s9.5-1.1,12.5-2.4s6.8-4.3,6.8-4.3
			S133.9,427.7,131,427.9z"/>
		<path d="M128.2,428.3c0,0,0.5,1.5-0.7,3.5c-1.3,2-6.3,7.8-8.6,13.9s-4.4,15.9,0.4,19.9s10.4,3.4,13.5,3s5.5-0.9,5.5-0.9
			s2.6,2.3,0.4,7.6s-4.9,5-15.5,4s-14.4-2.9-17-13s3.6-24.5,6.8-31s5.9-9.4,9.1-9.3S126,426.4,128.2,428.3z"/>
		<path fill="#4F4F4F" d="M138.2,467.7c0,0-5.3-7.1-7.3-10.3s-3.9-6.5-0.6-9.3c3.3-2.8,4.6-3.1,2.8-6.6s-4-5.1-9.1-1.9
			c-5.1,3.3-9.8,10-9.6,16s1.1,13.9,11.3,14.5S138.2,467.7,138.2,467.7z"/>
		<path d="M130.1,456.2c0,0-1.6-1.2-7.5-1.1c-5.9,0.1-9,2-9,2s-0.3-3.4,0.1-5c0.3-1.6,1.1-2.8,1.1-2.8s2.6-0.4,7.3,0.1
			c4.7,0.5,6.5,1.5,6.5,1.5L130.1,456.2z"/>
	</g>
	<g>
		<path fill="#793522" d="M70.1,288.9c0,0,2.5-10,5-10.7c2.5-0.7,8,0,18.2,2s16.5,2.5,17.8,6.7c1.3,4.2-2.5,13.3-2.5,13.3l4.5,0.8
			c0,0,4-9.7,2-15.8c-2-6.2-6-7.3-18.5-10.2s-20-4.2-23.3-2.8c-5,2-6.8,16.5-6.8,16.5L70.1,288.9z"/>
		<g>
			<g>
				<path fill="#793522" d="M111.6,393.9l-92.2-25c-8-2.2-12.7-10.4-10.6-18.4l15.7-57.9c2.2-8,10.4-12.7,18.4-10.6l92.2,25
					c8,2.2,12.7,10.4,10.6,18.4L130,383.4C127.9,391.4,119.6,396.1,111.6,393.9z"/>
				<path opacity="0.5" fill="#793522" d="M134.3,367.7l11.4-42.2c2.2-8-2.6-16.2-10.6-18.4l-92.2-25c-8-2.2-16.2,2.6-18.4,10.6
					l-11.4,42.2L134.3,367.7z"/>
				<path fill="#793522" d="M123.5,361.4l-98.9-26.8c-8-2.2-12.7-10.4-10.6-18.4l6.9-25.6c2.2-8,10.4-12.7,18.4-10.6l98.9,26.8
					c8,2.2,12.7,10.4,10.6,18.4l-6.9,25.6C139.8,358.8,131.5,363.6,123.5,361.4z"/>
			</g>
			<path fill="#FBE136" d="M75.5,361.3l-9.3-2.5c-1.6-0.4-2.5-2.1-2.1-3.7l3.8-14c0.4-1.6,2.1-2.5,3.7-2.1l9.3,2.5
				c1.6,0.4,2.5,2.1,2.1,3.7l-3.8,14C78.7,360.8,77.1,361.8,75.5,361.3z"/>
			
				<rect x="66.3" y="349.6" transform="matrix(0.9652 0.2617 -0.2617 0.9652 94.206 -6.9766)" opacity="0.35" fill="#FE413F" width="14.1" height="1.3"/>
		</g>
	</g>
	<path fill="#2D2D2D" d="M205.8,279.9c0,0-7.7,19-5.7,27.7s4.3,10.7,4.7,17c0.3,6.3-4.3,46.3-4.7,49.7c-0.3,3.3-24,23.7-38.3,33.3
		c-14.3,9.7-33,17-33,17s0,12,2.7,18c2.7,6,4,7.7,4,7.7s53.3-37,70-51.7s19.3-14.7,20.3-23s2-39,2-48.7c0-9.7,3-24.7,8-20.7
		s25.3,68.3,42,104.3c16.7,36,27.7,54,27.7,54s6.1-2.4,12.1-8c6-5.5,6.2-10.3,6.2-10.3s-19.2-31.2-31.9-57.8s-30.8-82.2-34.5-92.8
		s-7-22.3-7-22.3s-10.3,7.3-21.7,7C217.4,279.9,205.8,279.9,205.8,279.9z"/>
	<path fill="#F6C29E" d="M94.2,264.9c0,0-1.4,3.4-2,3.4s-2.5-1.5-4,0s-7.6,12.4-6.3,14.6s2,2.5,3,2.6s2.1-1.4,2.1-1.4
		s-0.9,2.5,0.6,3.4s3.6,1.7,4.3,1.3s1.7-1.7,1.7-1.7s-0.3,2.1,2,2.5s3.3,0.4,3.8-0.1s1.1-2,1.1-2s-0.2,2,1.7,2.4s3.7-0.1,4.3-2.5
		s1.4-13.5,0.9-14.1s-3.9-1-3.9-1l0.5-2L94.2,264.9z"/>
	<path fill="#F6C29E" d="M320.9,185.4c0,0,1.9-2,2.6-4.3c0.6-2.1,0.9-5.3-1-9.1c-1.5-3-4.8-8.7-2.7-9.8c2.2-1.2,4.8,1.3,6.8,5.3
		s3.5,5.5,4.3,5s5.5-8.5,10.2-11.8c4.7-3.3,9-5.7,11.7-4.3c2.7,1.3,1.8,4.2,0,5.5c-1.8,1.3-4.5,1.7-7.8,4.3s-5.3,5.3-3.8,5.7
		c1.5,0.3,8.2-4.4,12.7-6.4s7.8-1.6,9.1,0.4s-1.2,3.9-3.9,4.4s-8.8,1.9-12.6,4.6c-1.7,1.2-3.5,3.7-1.3,3.5c2.2-0.2,9.4-3.9,15.7-3.7
		c3.8,0.1,4.3,2,3.7,3.7c-1,2.5-8,1.8-10.9,2.3c-2.8,0.4-7.6,2-6.9,3.3c0.7,1.3,10.5-2.4,12.7,0.6c2.2,3-2.3,4.6-8,4.8
		c-5.7,0.2-11.5,5.4-15.2,6.4c-3.7,1-6.5,0.3-8-1.5S320.9,185.4,320.9,185.4z"/>
	<path fill="#CBD3E6" d="M192.7,191.2c-0.8,0.3-7.5,2.3-14.5,5.5s-23.3,8.5-38.5,11s-24.2,11.3-30.2,19.8s-13.3,28.5-13.3,28.5
		s7.3,4.8,9.5,5.5s6-9.8,8.3-14.5s10.2-17.3,22.2-22.5s26.1-6.3,33.8-8.8s14-5.5,17.5-4s11.2,5.4,14.3,12.8
		c3.5,8.2,5.8,24.5,6.8,31.3c1,6.8,0.2,24.1,0.2,24.1s14.9,3.3,22.2,2.7c11.5-1,22.3-3.3,22.3-3.3s-1.7-26.7-4.4-40.2
		s-9.3-31.3-9.3-31.3s22.3,17.3,46.8,18.3s35.3-16,37.5-19.3s2.8-5.5,2.8-5.5s-3-4.3-5-7.3s-3-7.3-3-7.3s-13.3,20.8-23.5,24.5
		s-22,1-33.3-4.5s-30.8-16-34.3-17.3s-16.3,5-21.3,5S192.7,191.2,192.7,191.2z"/>
	<path opacity="0.7" fill="#E3E3E3" d="M226.7,215.5c-0.8-2.4-2.3-5.1-3.5-7.2c0.3,0,0.4,0,0.4,0s-0.4-8-1.1-11.1s-2.1-5.2-2.1-5.2
		l-5.5-0.2c0,0-3.9,1.2-5.7,2.6c-1.8,1.4-2.2,5-2.2,5l9.9,10.3c0.4,5.7,1.4,23.4-1.1,34.1c-3,12.8-14.4,24.8-14.4,24.8
		s1.6,10.8,0.4,20.5c-1.2,9.7-2.9,14.8-2.9,14.8s18.5-17,22.6-21.6c4.1-4.6,5-7.3,5-7.3s3.9-14.7,4.1-29.6
		C230.9,230.7,229.5,223.4,226.7,215.5z"/>
	<g>
		<g>
			<path fill="#F6C29E" d="M199.2,167.8c0,0,3,7.6,3.9,12.1s0,7.6,0,7.6l10.4,8.9l4-10.8c0,0-1.6-3.8-2.1-5.4s-0.8-2.3-0.8-2.3
				s3.3-1.5,2.8-3.9s-3.8-1.8-3.8-1.8s-1.4-3.8-1.9-5.5s-11.8,1.1-11.8,1.1"/>
		</g>
		<path fill="#F6C29E" d="M199.2,167.8c0,0,3,7.6,3.9,12.1s0,7.6,0,7.6l10.4,8.9l4-10.8c0,0-1.6-3.8-2.1-5.4s-0.8-2.3-0.8-2.3
			s3.3-1.5,2.8-3.9s-3.8-1.8-3.8-1.8s-1.4-3.8-1.9-5.5s-11.8,1.1-11.8,1.1"/>
		<path opacity="0.59" fill="#F4B285" d="M215.3,180.2c-0.5-1.6-0.7-2.2-0.7-2.2s3.3-1.5,2.8-3.9s-3.8-1.8-3.8-1.8s-1.4-3.8-1.9-5.5
			s-11.8,1.1-11.8,1.1l-0.8-0.3c0,0,2.9,7.3,3.8,11.8C207.1,180.1,211.2,180.4,215.3,180.2z"/>
	</g>
	<g>
		<path fill="#2D6CA6" d="M216.1,208.1c0,0,0.8,23.2-2.8,35.8c-3.7,12.7-15.7,24-15.7,24s1,10.8-0.7,20.5
			c-1.7,9.7-3.7,14.7-3.7,14.7s19.3-16,23.7-20.3c4.3-4.3,5.3-7,5.3-7s4.7-14.5,5.7-29.3s0-22.2-2.3-30.2c-1.4-5-5.2-11.2-5.2-11.2
			L216.1,208.1z"/>
		<path fill="#2D6CA6" d="M223.5,211c-1.8-3.2-3.1-6-3.1-6l-4.3,3c0,0,0.1,1.7,0.1,4.4C218.6,211.3,220.7,210.9,223.5,211z"/>
		<path fill="#2D6CA6" d="M215.1,191.9c0,0-4,1-5.8,2.3c-1.8,1.3-2.5,4.8-2.5,4.8l9.7,11.2c0,0,1.3-0.8,3.5-1.2c2.2-0.3,3-0.2,3-0.2
			s0-8-0.5-11.2c-0.5-3.2-1.8-5.3-1.8-5.3L215.1,191.9z"/>
	</g>
	<path opacity="0.7" fill="#E3E3E3" d="M212.4,192.7c0,0-2.3,3.3-4,9.7c-0.6,2.2-0.7,4.9-0.7,4.9s-4.9-3.8-8.9-6.8
		c-3.1-2.3-8.8-7.1-8.8-7.1l4.8-4.6L212.4,192.7z"/>
	<path opacity="0.7" fill="#E3E3E3" d="M212.5,192.7c0,0,6.9,1.8,11,6.6c2.2,2.6,2.8,3.3,2.8,3.3s2.4-9,2.9-11
		c1-4.5,1.1-6.6,1.1-6.6s-5.9,2-6.3,1.9s-5-1.4-5-1.4L212.5,192.7z"/>
	<g>
		<path fill="#F6C29E" d="M137.2,122.9c0,0-11-0.3-12.5,8s3,16.7,10.5,15.5c7.3-1.2,8-3.8,8-3.8s6,21,31.8,26.5s57.3,0.3,75.3-13
			s0.5-20.1-5.8-25.3c-8-6.5-18.5-24.2-22.3-33.2s-9-31.5-9-31.5s-26.3-3-43.3,3.5s-32.8,26.3-34.3,33.8S137.2,122.9,137.2,122.9z"
			/>
		<path opacity="0.8" fill="#F4B285" d="M137.4,126.4c-2.4-0.3-6.5,0.8-8,5.3c-1.5,4.5,2.7,9.8,4,10.7c1.3,0.8,3.2,0.7,3.2,0.7
			s-3.5-2.2-4.8-6.2c-1.3-4,1.5-7.7,3.7-7.8c2.2-0.2,5.8,2.2,5.3,4.5s-3.3,2.8-3.3,2.8s0.8,1.7,3,0.5c2.2-1.2,3-4.1,2.5-6.3
			C142.4,128.5,139.1,126.6,137.4,126.4z"/>
		<path d="M137.1,76.6c0,0-3-26,14.7-34s31-5.7,31-5.7s0.3-14.7,17.3-18.7s20.7,1.3,29-0.7s10-7.3,10-7.3s1.3,21.3-5,38.3
			s-18.7,24-44.7,25s-30.3,12.3-30.3,12.3L137.1,76.6z"/>
		<path d="M157.4,87.6l-21.7-9c0,0-11-2-17.3,6.7c-6.3,8.7,2.3,14.7,2.3,14.7s-6.7-1.7-8.3,8c-1.7,9.7,9.7,13.3,15.7,15
			s12.3,5,15,12.3c1.2,3.2,0.7,3.3,0.7,3.3l4.3-0.7c0,0,8.1-9.3,10.8-24.5C161.1,101.5,157.4,87.6,157.4,87.6z"/>
		<path fill="#FFFFFF" d="M172.8,142.4c0,0,17.4,2.9,37.4-4.8c19.5-7.6,21.3-13.2,21.3-13.2s5.3,17.4-13.4,25.9
			C199.4,158.8,172.8,142.4,172.8,142.4z"/>
		<path opacity="0.8" fill="#F4B285" d="M194.6,100.7c0,0,5.9,11.3,10.5,14.4s10,1.5,11.1,0.9s1.1-0.6,1.1-0.6s-0.1,7-4.5,10.5
			c-3.2,2.5-6.1,2.9-8,2.2s-3.4-2.5-3.4-2.5s0.6,5,6.1,4.5s9.9-4.6,11.6-9.4c1.2-3.3-0.1-7.1-0.1-7.1s-6.6,3.5-10.6,1.5
			c-6.3-3.1-9.3-8.4-10.5-10.1S194.6,100.7,194.6,100.7z"/>
		<path d="M179.4,109.7c6.6-3.1,11.2,3,11.2,3s-2.2-8.3-11.2-5.4c-8.5,2.8-4.5,11.3-4.5,11.3S173.8,112.4,179.4,109.7z"/>
		<path d="M210,100.9c5.7-2.7,9.6,2.5,9.6,2.5s-1.9-7.2-9.6-4.6c-7.3,2.4-3.9,9.7-3.9,9.7S205.1,103.2,210,100.9z"/>
	</g>
	<path fill="#CBD3E6" d="M212.4,192.7c0,0-2.8,1.3-4.8,4.8s-2.2,6.7-2.2,6.7s-2.3-3.5-6.8-6.2s-8.5-4.8-8.5-4.8s0.7-2.8,2.3-6
		c1.7-3.2,3.7-5.5,3.7-5.5s4,1.8,8.3,4.7C208.8,189.2,212.4,192.7,212.4,192.7z"/>
	<path fill="#CBD3E6" d="M217.9,179.1l-5.5,13.7c0,0,5,0.4,8.8,2.2c2.6,1.3,4.3,4,4.3,4l4.8-14c0,0-2.6-2.4-6.5-4
		C220.3,179.5,217.9,179.1,217.9,179.1z"/>
	<path opacity="0.7" fill="#E3E3E3" d="M324.8,204.9c0.8-1.6,1.5-2.9,1.5-2.9s-3.5-4.4-5.5-7.4s-2.9-7.2-2.9-7.2s-0.7,1.2-1.9,2.9
		C317.7,195.7,320.8,201.2,324.8,204.9z"/>
	<path opacity="0.7" fill="#E3E3E3" d="M96.2,255.9c0,0,7.3,4.8,9.5,5.5c0.6,0.2,1.4-0.5,2.2-1.7c-3.7-1.9-7.7-2.9-11.1-5.6
		C96.4,255.2,96.2,255.9,96.2,255.9z"/>
	<path fill="#CBD3E6" d="M95.7,254.9c0,0,2.5,2,5.8,3.8c3.3,1.8,6.1,2.6,6.1,2.6s-1.5,8.9-2.2,9.5c-0.7,0.6-6.7-1.4-9.8-2.9
		c-3.1-1.5-4.7-3.3-4.8-4S95.2,255.3,95.7,254.9z"/>
	<circle fill="#111B45" cx="95.1" cy="260.7" r="1.3"/>
	<path fill="#CBD3E6" d="M316.9,187.8c0,0,1.2,4.2,3.7,8.6c2.5,4.6,5.4,7.4,5.4,7.4l5.4-7.6c0,0-3.1-3.4-5.4-7.6
		c-1.4-2.5-3.7-6.9-3.7-6.9L316.9,187.8z"/>
</g>
</svg>
